<svg width="100" height="100" viewBox="0 0 100 100" fill="none" xmlns="http://www.w3.org/2000/svg">
<path d="M3.25103 37.6079H21.4403C23.2305 37.6079 24.6914 39.0616 24.6914 40.8589V59.0493C24.6914 60.8394 23.2377 62.2993 21.4403 62.2993H3.25103C1.46091 62.2993 0 60.8466 0 59.0493V40.8507C0 39.0616 1.45267 37.6079 3.25103 37.6079Z" fill="#5468FF"/>
<path d="M14.919 43.12V42.2733C14.9185 41.6816 14.4386 41.2022 13.8469 41.2023H11.348C10.7563 41.2022 10.2764 41.6816 10.276 42.2733V43.1427C10.276 43.2394 10.3655 43.3073 10.4632 43.2846C11.1701 43.0805 11.9023 42.9773 12.6381 42.9781C13.3511 42.9781 14.0568 43.0748 14.7389 43.262C14.8295 43.2846 14.919 43.2178 14.919 43.12ZM8.07019 44.2281L7.64324 43.8011C7.44233 43.6 7.16975 43.4871 6.88552 43.4871C6.60129 43.4871 6.32871 43.6 6.1278 43.8011L5.61752 44.3104C5.41603 44.5106 5.30273 44.783 5.30273 45.067C5.30273 45.3511 5.41603 45.6235 5.61752 45.8237L6.03727 46.2435C6.10517 46.3104 6.20291 46.2949 6.26258 46.2281C6.51022 45.8879 6.78367 45.5674 7.08048 45.2692C7.37979 44.9689 7.70323 44.6936 8.04756 44.4462C8.12245 44.4009 8.12986 44.296 8.07019 44.2281ZM12.6307 46.9163V50.5789C12.6307 50.6838 12.7439 50.7589 12.8406 50.7064L16.0967 49.0213C16.1708 48.9842 16.1934 48.8937 16.1564 48.8196C15.4815 47.6355 14.2284 46.8268 12.7809 46.7743C12.7058 46.7743 12.6307 46.834 12.6307 46.9163ZM12.6307 55.7394C9.91566 55.7394 7.7099 53.5367 7.7099 50.8258C7.7099 48.1149 9.91566 45.9132 12.6307 45.9132C15.3467 45.9132 17.5517 48.1149 17.5517 50.8258C17.5517 53.5367 15.3541 55.7394 12.6307 55.7394ZM12.6307 43.8464C8.77472 43.8464 5.64715 46.9698 5.64715 50.8258C5.64715 54.6828 8.77472 57.799 12.6307 57.799C16.4867 57.799 19.6142 54.6756 19.6142 50.8186C19.6142 46.9616 16.4939 43.8464 12.6307 43.8464Z" fill="white"/>
<path d="M49.2208 57.192C44.4132 57.2145 44.4132 53.3122 44.4132 52.6908L44.405 38.0725L47.3379 37.6075V52.1363C47.3379 52.4892 47.3379 54.7207 49.2206 54.7279V57.1918L49.2208 57.192ZM37.3319 54.803C38.2319 54.803 38.8998 54.7505 39.3649 54.661V51.6805C39.1327 51.6188 38.897 51.571 38.6591 51.5375C38.3215 51.4875 37.9806 51.4624 37.6393 51.4624C37.3163 51.4624 36.986 51.4851 36.6568 51.5375C36.3266 51.5828 36.0262 51.6723 35.7638 51.7999C35.5015 51.9274 35.2834 52.1075 35.126 52.339C34.9614 52.5715 34.8863 52.7062 34.8863 53.0581C34.8863 53.7464 35.126 54.1445 35.5611 54.4058C35.9963 54.6682 36.5889 54.803 37.3319 54.803ZM37.0768 44.1682C38.0439 44.1682 38.8616 44.2886 39.5221 44.5283C40.1817 44.768 40.7146 45.1044 41.1044 45.5314C41.5025 45.9655 41.7721 46.5427 41.9369 47.1569C42.1097 47.7711 42.192 48.4449 42.192 49.1857V56.7207C41.7424 56.8174 41.0591 56.9295 40.1447 57.0643C39.2299 57.199 38.2023 57.2669 37.0611 57.2669C36.3039 57.2669 35.6064 57.1918 34.984 57.0499C34.3533 56.9079 33.8214 56.6754 33.3708 56.3534C32.9284 56.0314 32.5838 55.6188 32.3286 55.1106C32.0807 54.6003 31.9531 53.8822 31.9531 53.1332C31.9531 52.4141 32.0951 51.9573 32.3739 51.4624C32.6579 50.9686 33.0406 50.5643 33.521 50.2495C34.0087 49.9346 34.5632 49.7104 35.2011 49.5756C35.8389 49.4408 36.5066 49.3729 37.1959 49.3729C37.519 49.3729 37.8564 49.3955 38.2165 49.4326C38.5694 49.4707 38.9521 49.5386 39.3574 49.6353V49.1558C39.3574 48.8194 39.3194 48.4974 39.2371 48.198C39.158 47.903 39.0142 47.6292 38.8163 47.3966C38.6136 47.1641 38.3523 46.984 38.0221 46.8575C37.6918 46.7299 37.271 46.6322 36.769 46.6322C36.0941 46.6322 35.4788 46.7145 34.9161 46.8122C34.3533 46.9089 33.8883 47.0221 33.5354 47.1486L33.1836 44.7453C33.5509 44.6178 34.0982 44.4902 34.8039 44.3637C35.5087 44.2279 36.2669 44.1682 37.0766 44.1682H37.0768ZM95.0007 54.7207C95.9009 54.7207 96.5675 54.6682 97.0325 54.5776V51.5982C96.8679 51.553 96.6354 51.5005 96.3278 51.4552C95.9899 51.4052 95.6488 51.3801 95.3072 51.3801C94.9852 51.3801 94.655 51.4028 94.3247 51.4552C93.9955 51.5005 93.6951 51.59 93.4328 51.7176C93.1694 51.8451 92.9523 52.0252 92.7949 52.2567C92.6293 52.4892 92.5552 52.6239 92.5552 52.9758C92.5552 53.6641 92.7949 54.0622 93.2301 54.3235C93.6725 54.5931 94.2579 54.7207 95.0007 54.7207ZM94.7527 44.0941C95.7198 44.0941 96.5375 44.2134 97.198 44.4532C97.8574 44.6929 98.3904 45.0293 98.7803 45.4562C99.1702 45.8832 99.448 46.4676 99.6126 47.0818C99.7854 47.696 99.8677 48.3698 99.8677 49.1116V56.6455C99.4181 56.7423 98.735 56.8544 97.8204 56.9902C96.9058 57.125 95.878 57.1918 94.7371 57.1918C93.9799 57.1918 93.2823 57.1167 92.6601 56.9748C92.0295 56.8328 91.4976 56.6003 91.047 56.2783C90.6046 55.9562 90.2599 55.5437 90.0048 55.0355C89.7568 54.5262 89.6293 53.8071 89.6293 53.0581C89.6293 52.339 89.7723 51.8822 90.05 51.3873C90.334 50.8935 90.7167 50.4892 91.1972 50.1744C91.6848 49.8606 92.2393 49.6353 92.8772 49.5005C93.5151 49.3657 94.1828 49.2988 94.8731 49.2988C95.1951 49.2988 95.5325 49.3215 95.8926 49.3585C96.2527 49.3955 96.6282 49.4634 97.0325 49.5612V49.0818C97.0325 48.7443 96.9955 48.4223 96.9132 48.1229C96.8343 47.8278 96.6906 47.554 96.4924 47.3215C96.2897 47.089 96.0284 46.9089 95.6982 46.7824C95.3677 46.6548 94.9472 46.5581 94.4451 46.5581C93.7702 46.5581 93.155 46.6404 92.5922 46.7371C92.0295 46.8348 91.5644 46.947 91.2116 47.0746L90.8597 44.6702C91.227 44.5427 91.7743 44.4161 92.4801 44.2886C93.1848 44.161 93.942 44.0941 94.7527 44.0941ZM85.9461 42.7011C86.9284 42.7011 87.7321 41.9069 87.7321 40.9254C87.7321 39.9449 86.9367 39.1507 85.9461 39.1507C84.9564 39.1507 84.1611 39.9449 84.1611 40.9254C84.1611 41.9069 84.9636 42.7011 85.9461 42.7011ZM87.4235 57.1918H84.4758V44.5499L87.4233 44.0859V57.1918H87.4235ZM82.2556 57.192C77.448 57.2145 77.448 53.3122 77.448 52.6908L77.4397 38.0725L80.3729 37.6075V52.1363C80.3729 52.4892 80.3729 54.7207 82.2556 54.7279V57.192ZM72.7216 50.7217C72.7216 49.4552 72.4439 48.3997 71.9039 47.6661C71.3638 46.9244 70.6066 46.5581 69.6385 46.5581C68.6714 46.5581 67.913 46.9244 67.3739 47.6661C66.8338 48.4069 66.5706 49.4552 66.5706 50.7217C66.5706 52.0025 66.8412 52.8626 67.3813 53.6044C67.9214 54.3534 68.6786 54.7207 69.6467 54.7207C70.6138 54.7207 71.3721 54.3462 71.9122 53.6044C72.4521 52.8554 72.7216 52.0025 72.7216 50.7217ZM75.7216 50.7145C75.7216 51.7032 75.5797 52.4511 75.2867 53.268C74.9945 54.0838 74.5819 54.7803 74.05 55.3575C73.5171 55.9336 72.8793 56.3832 72.1291 56.698C71.3793 57.0118 70.2237 57.1918 69.6465 57.1918C69.0684 57.1846 67.9212 57.02 67.1784 56.698C66.4356 56.376 65.7978 55.9336 65.2659 55.3575C64.733 54.7803 64.3206 54.0838 64.0202 53.268C63.7206 52.4511 63.5706 51.7032 63.5706 50.7145C63.5706 49.7258 63.7052 48.7741 64.0056 47.9655C64.306 47.1569 64.7258 46.4676 65.2659 45.8914C65.806 45.3143 66.4511 44.8719 67.1856 44.5581C67.9284 44.2433 68.7463 44.0941 69.6311 44.0941C70.5169 44.0941 71.3338 44.2505 72.0838 44.5581C72.8348 44.8719 73.4801 45.3143 74.0048 45.8914C74.5365 46.4676 74.9492 47.1569 75.2496 47.9655C75.5644 48.7741 75.7218 49.7258 75.7218 50.7145H75.7216ZM53.6467 50.7145C53.6467 51.9418 53.9163 53.305 54.4564 53.8739C54.9965 54.4439 55.6939 54.7279 56.55 54.7279C57.0151 54.7279 57.4574 54.661 57.8698 54.5334C58.2823 54.4058 58.6118 54.2556 58.8751 54.0766V46.805C58.6653 46.7597 57.7875 46.5797 56.9389 46.5581C55.8741 46.5272 55.0644 46.9624 54.4945 47.6579C53.9315 48.3554 53.6467 49.5756 53.6467 50.7145ZM61.8 56.4953C61.8 58.4953 61.2898 59.9552 60.2618 60.8842C59.235 61.8122 57.6671 62.2772 55.5519 62.2772C54.7793 62.2772 53.1743 62.127 51.8914 61.8431L52.3636 59.5211C53.4367 59.7453 54.8544 59.806 55.5972 59.806C56.7741 59.806 57.6146 59.5663 58.1167 59.0869C58.6198 58.6075 58.8667 57.8966 58.8667 56.9521V56.4727C58.5745 56.6147 58.1918 56.7577 57.7196 56.9079C57.2474 57.0499 56.7 57.125 56.0838 57.125C55.2741 57.125 54.5385 56.9974 53.8719 56.7423C53.2042 56.4881 52.626 56.1137 52.1537 55.6188C51.6815 55.125 51.306 54.5036 51.0437 53.7618C50.7813 53.02 50.6455 51.6949 50.6455 50.7217C50.6455 49.8081 50.7885 48.662 51.0665 47.8976C51.3513 47.1342 51.7558 46.4748 52.3039 45.9285C52.8443 45.3822 53.5046 44.9624 54.2772 44.6548C55.0498 44.3482 55.9562 44.1538 56.9387 44.1538C57.8924 44.1538 58.77 44.2731 59.6249 44.4161C60.4799 44.5581 61.2072 44.7073 61.7998 44.8719V56.4953H61.8Z" fill="#5468FF"/>
</svg>
