<svg width="100" height="100" viewBox="0 0 100 100" fill="none" xmlns="http://www.w3.org/2000/svg">
<path d="M0.0498047 52.7628C0.0498047 51.6334 0.238866 50.5797 0.61699 49.6016C0.995113 48.6236 1.52448 47.7715 2.20511 47.0455C2.88573 46.3195 3.69995 45.7498 4.6478 45.3364C5.59562 44.923 6.6342 44.7163 7.76353 44.7163C8.62061 44.7163 9.39954 44.8423 10.1003 45.0944C10.8011 45.3465 11.4792 45.7599 12.1347 46.3346V45.0188H15.9764V60.5067H12.1347V59.1909C11.4792 59.7656 10.8011 60.179 10.1003 60.4311C9.39954 60.6832 8.62061 60.8092 7.76353 60.8092C6.6342 60.8092 5.59562 60.6025 4.6478 60.1891C3.69995 59.7757 2.88573 59.206 2.20511 58.48C1.52448 57.754 0.995113 56.902 0.61699 55.9239C0.238866 54.9458 0.0498047 53.8921 0.0498047 52.7628ZM8.26266 57.1944C8.56515 57.1944 8.88277 57.1616 9.21553 57.0961C9.54827 57.0306 9.88354 56.9196 10.2213 56.7633C10.5591 56.607 10.8894 56.3978 11.212 56.1356C11.5347 55.8735 11.8422 55.5508 12.1347 55.1676V50.3579C11.8422 49.9747 11.5347 49.6546 11.212 49.3975C10.8894 49.1403 10.5591 48.9311 10.2213 48.7698C9.88354 48.6085 9.54827 48.495 9.21553 48.4295C8.88277 48.3639 8.56515 48.3312 8.26266 48.3311C7.66774 48.3312 7.11063 48.4421 6.59135 48.6639C6.07205 48.8857 5.62083 49.1958 5.23767 49.5941C4.8545 49.9924 4.55452 50.4613 4.33773 51.0007C4.12093 51.5402 4.01254 52.1275 4.01254 52.7628C4.01254 53.398 4.12093 53.9854 4.33773 54.5248C4.55452 55.0643 4.8545 55.5332 5.23767 55.9314C5.62083 56.3297 6.07205 56.6398 6.59135 56.8616C7.11063 57.0835 7.66774 57.1944 8.26266 57.1944Z" fill="#77C159"/>
<path d="M25.5799 48.5397C23.7595 48.553 22.1782 49.8215 22.1782 51.704V60.5067H18.3364V51.8099C18.3579 48.1834 21.4984 44.7651 25.5248 44.7163H25.6322C29.6586 44.7651 32.7991 48.1834 32.8206 51.8099V60.5067H28.9788V51.704C28.9788 49.8215 27.3975 48.553 25.5771 48.5397" fill="#77C159"/>
<path d="M34.6392 52.7628C34.6392 51.6334 34.8282 50.5797 35.2063 49.6016C35.5845 48.6236 36.1138 47.7715 36.7945 47.0455C37.4751 46.3195 38.2893 45.7498 39.2371 45.3364C40.185 44.923 41.2236 44.7163 42.3529 44.7163C43.21 44.7163 43.9914 44.8423 44.6973 45.0944C45.4031 45.3465 46.0787 45.7549 46.724 46.3195V40.3754H50.5657V60.5067H46.724V59.206C46.0787 59.7807 45.4031 60.1916 44.6973 60.4387C43.9914 60.6857 43.21 60.8092 42.3529 60.8092C41.2236 60.8092 40.185 60.6025 39.2371 60.1891C38.2893 59.7757 37.4751 59.206 36.7945 58.48C36.1138 57.754 35.5845 56.9019 35.2063 55.9239C34.8282 54.9458 34.6392 53.8921 34.6392 52.7628ZM42.852 57.1944C43.1545 57.1944 43.4721 57.1616 43.8049 57.0961C44.1376 57.0305 44.4729 56.9196 44.8107 56.7633C45.1485 56.607 45.4787 56.3978 45.8014 56.1356C46.124 55.8735 46.4316 55.5508 46.724 55.1676V50.3579C46.4316 49.9747 46.124 49.6546 45.8014 49.3974C45.4787 49.1403 45.1485 48.9311 44.8107 48.7698C44.4729 48.6084 44.1376 48.495 43.8049 48.4294C43.4721 48.3639 43.1545 48.3311 42.852 48.3311C42.2571 48.3311 41.7 48.4421 41.1807 48.6639C40.6614 48.8857 40.2102 49.1958 39.827 49.5941C39.4439 49.9924 39.1439 50.4612 38.9271 51.0007C38.7103 51.5402 38.6019 52.1275 38.6019 52.7628C38.6019 53.398 38.7103 53.9854 38.9271 54.5248C39.1439 55.0643 39.4439 55.5331 39.827 55.9314C40.2102 56.3297 40.6614 56.6398 41.1807 56.8616C41.7 57.0835 42.2571 57.1944 42.852 57.1944Z" fill="#77C159"/>
<path d="M68.5567 57.1944C69.1314 57.1944 69.6734 57.086 70.1826 56.8692C70.6918 56.6524 71.1354 56.3474 71.5136 55.9541C71.8917 55.5609 72.1892 55.0945 72.406 54.5551C72.6227 54.0156 72.7311 53.4182 72.7311 52.7628C72.7311 52.1174 72.6202 51.525 72.3984 50.9856C72.1765 50.4461 71.874 49.9798 71.4909 49.5865C71.1077 49.1933 70.6641 48.8857 70.1599 48.6639C69.6557 48.4421 69.1213 48.3312 68.5567 48.3311C67.9819 48.3312 67.4399 48.4421 66.9307 48.6639C66.4215 48.8857 65.9778 49.1933 65.5997 49.5865C65.2216 49.9798 64.9216 50.4461 64.6998 50.9856C64.4779 51.525 64.367 52.1174 64.367 52.7628C64.367 53.4182 64.4754 54.0156 64.6922 54.5551C64.909 55.0945 65.2065 55.5609 65.5846 55.9541C65.9627 56.3474 66.4064 56.6524 66.9156 56.8692C67.4248 57.086 67.9718 57.1944 68.5567 57.1944ZM68.5567 60.8092C67.4374 60.8092 66.3837 60.6076 65.3955 60.2042C64.4074 59.8009 63.5427 59.2388 62.8016 58.5178C62.0605 57.7969 61.4756 56.9448 61.0471 55.9617C60.6186 54.9786 60.4043 53.9123 60.4043 52.7628C60.4043 51.6435 60.6186 50.5949 61.0471 49.6168C61.4756 48.6387 62.058 47.7867 62.794 47.0606C63.5301 46.3347 64.3948 45.7624 65.388 45.344C66.3812 44.9255 67.4374 44.7163 68.5567 44.7163C69.6759 44.7163 70.7296 44.9255 71.7178 45.344C72.7059 45.7624 73.568 46.3347 74.3041 47.0606C75.0402 47.7867 75.6225 48.6387 76.0511 49.6168C76.4796 50.5949 76.6939 51.6435 76.6939 52.7628C76.6939 53.9123 76.4796 54.9786 76.0511 55.9617C75.6225 56.9448 75.0377 57.7969 74.2966 58.5178C73.5554 59.2388 72.6933 59.8009 71.7102 60.2042C70.7271 60.6076 69.6759 60.8092 68.5567 60.8092Z" fill="#77C159"/>
<path d="M80.336 43.806C80.0248 43.806 79.7306 43.7452 79.4533 43.6236C79.1761 43.5021 78.933 43.3367 78.7239 43.1276C78.5147 42.9185 78.3494 42.6753 78.2278 42.3981C78.1062 42.1209 78.0454 41.8266 78.0454 41.5154C78.0454 41.2041 78.1062 40.9075 78.2278 40.6254C78.3494 40.3433 78.5147 40.0977 78.7239 39.8886C78.933 39.6795 79.1761 39.5141 79.4533 39.3925C79.7306 39.271 80.0248 39.2102 80.336 39.2101C80.6473 39.2102 80.944 39.2709 81.226 39.3925C81.5081 39.5141 81.7537 39.6795 81.9628 39.8886C82.1719 40.0977 82.3373 40.3433 82.4589 40.6254C82.5805 40.9075 82.6413 41.2041 82.6413 41.5154C82.6413 41.8266 82.5805 42.1209 82.4589 42.3981C82.3373 42.6753 82.1719 42.9185 81.9628 43.1276C81.7537 43.3367 81.5081 43.5021 81.226 43.6236C80.944 43.7452 80.6473 43.806 80.336 43.806Z" fill="#77C159"/>
<path d="M78.415 45.0188H82.2568V60.5067H78.415V45.0188Z" fill="#77C159"/>
<path d="M84.0234 52.7628C84.0234 51.6334 84.2125 50.5797 84.5906 49.6016C84.9687 48.6236 85.4981 47.7715 86.1787 47.0455C86.8594 46.3195 87.6736 45.7498 88.6214 45.3364C89.5693 44.923 90.6078 44.7163 91.7372 44.7163C92.5943 44.7163 93.3757 44.8423 94.0815 45.0944C94.7874 45.3465 95.4629 45.7549 96.1083 46.3195V40.3754H99.95V60.5067H96.1083V59.206C95.4629 59.7807 94.7874 60.1916 94.0815 60.4387C93.3757 60.6857 92.5943 60.8092 91.7372 60.8092C90.6078 60.8092 89.5693 60.6025 88.6214 60.1891C87.6736 59.7757 86.8594 59.206 86.1787 58.48C85.4981 57.754 84.9687 56.9019 84.5906 55.9239C84.2125 54.9458 84.0234 53.8921 84.0234 52.7628ZM92.2363 57.1944C92.5388 57.1944 92.8564 57.1616 93.1892 57.0961C93.5219 57.0305 93.8572 56.9196 94.195 56.7633C94.5328 56.607 94.863 56.3978 95.1857 56.1356C95.5083 55.8735 95.8159 55.5508 96.1083 55.1676V50.3579C95.8159 49.9747 95.5083 49.6546 95.1857 49.3974C94.863 49.1403 94.5328 48.9311 94.195 48.7698C93.8572 48.6084 93.5219 48.495 93.1892 48.4294C92.8564 48.3639 92.5388 48.3311 92.2363 48.3311C91.6414 48.3311 91.0843 48.4421 90.565 48.6639C90.0457 48.8857 89.5945 49.1958 89.2113 49.5941C88.8281 49.9924 88.5282 50.4612 88.3114 51.0007C88.0946 51.5402 87.9862 52.1275 87.9862 52.7628C87.9862 53.398 88.0946 53.9854 88.3114 54.5248C88.5282 55.0643 88.8281 55.5331 89.2113 55.9314C89.5945 56.3297 90.0457 56.6398 90.565 56.8616C91.0843 57.0835 91.6414 57.1944 92.2363 57.1944Z" fill="#77C159"/>
<path d="M60.0384 48.4932C57.4639 48.4932 56.3286 49.8215 56.3286 51.704V60.5067H52.4868V51.8099C52.5083 48.1834 54.6031 44.6182 60.0384 44.6182" fill="#77C159"/>
</svg>
