<svg width="100" height="100" viewBox="0 0 100 100" fill="none" xmlns="http://www.w3.org/2000/svg">
<path d="M6.60736 42.9485L7.81372 46.4763L5.67214 52.6548C6.51868 52.7929 7.37531 52.8596 8.23291 52.854C8.82254 52.8552 9.41189 52.8242 9.99819 52.7614L10.7342 55.0551C9.94009 55.1354 9.07405 55.1935 8.24398 55.1935C7.14082 55.1907 6.03931 55.1113 4.94722 54.9555L3.72563 58.5359H0L5.82709 42.9485H6.60736Z" fill="#FFA500" fill-opacity="0.6"/>
<path d="M93.9956 46.4763C97.7475 46.4763 99.9997 48.2264 99.9997 52.6424C99.9997 53.1958 99.9845 53.7962 99.9707 53.875H91.3324C91.3172 55.6528 92.8293 56.4289 95.1881 56.4289C96.7763 56.4289 98.0422 56.0581 98.8958 55.8063L99.0341 58.1139C98.3272 58.3782 96.7971 58.7628 94.708 58.7628C90.5674 58.7683 87.741 57.2437 87.741 52.6286C87.741 49.6458 88.9183 47.6564 91.302 46.8596V51.7016H96.483C96.4968 49.5531 95.6737 48.6248 93.8932 48.6248C93.0631 48.6248 92.4503 48.8241 92.0242 49.2488V46.6617C92.6734 46.5342 93.3339 46.4721 93.9956 46.4763ZM39.3673 41.6619V52.6424C39.3673 54.9943 39.8529 56.4344 41.9571 56.4344C44.0613 56.4344 44.7088 54.9887 44.7088 52.6424C44.7088 50.2961 44.0613 48.849 41.9571 48.849C41.0745 48.849 40.4851 49.1008 40.0881 49.5656V47.2317C40.7646 46.807 41.6776 46.5289 42.9283 46.5289C46.1075 46.5289 48.1812 48.3454 48.1812 52.6286C48.1812 56.9172 46.1061 58.7157 42.8992 58.7157C40.9126 58.7157 39.7643 58.024 39.1169 57.1372L38.955 58.5303H35.9391V43.9433H34.4076V41.6619H39.3673ZM64.9846 46.5663C67.0003 46.5663 68.1486 47.2691 68.7808 48.1572L68.9579 46.6977H71.96L71.9641 58.5303H68.5346V52.6424C68.5346 50.2905 68.049 48.849 65.9447 48.849C63.8405 48.849 63.1931 50.2947 63.1931 52.6424C63.1931 54.9901 63.8405 56.4289 65.9447 56.4289C66.8288 56.4289 67.4167 56.1771 67.8138 55.7136V58.0212C67.1373 58.4446 66.2104 58.713 64.9736 58.713C61.7667 58.713 59.7164 56.9228 59.7164 52.6396C59.7164 48.3565 61.7626 46.5663 64.9846 46.5663ZM10.8018 42.9486L16.6289 58.5303H12.729L7.4165 42.9486H10.8018ZM21.9967 46.7005V56.2463H23.3801V58.5303H18.5726V48.9845H17.0425V46.7005H21.9967ZM33.1777 46.4888C33.5066 46.4858 33.8349 46.5169 34.1572 46.5815L34.1129 49.2875C33.8363 49.2598 33.4655 49.2336 33.1445 49.2336C32.1291 49.2336 31.4083 49.4729 30.9075 49.8437C29.8002 50.6628 29.7607 52.1842 29.7593 53.0163L29.7592 58.5303H26.3435V48.9845H24.812V46.7005H29.3594L29.5808 48.5972C30.1992 47.3908 31.346 46.4888 33.1777 46.4888ZM57.983 46.4888C58.3142 46.4853 58.6447 46.5163 58.9694 46.5815L58.9251 49.2875C58.6484 49.2598 58.2777 49.2336 57.9567 49.2336C56.9412 49.2336 56.2205 49.4729 55.7197 49.8437C54.6137 50.6628 54.5742 52.1842 54.5728 53.0163L54.5728 58.5303H51.1557V48.9845H49.6242V46.7005H54.1716L54.3929 48.5972C55.0113 47.3908 56.1582 46.4888 57.983 46.4888ZM78.631 41.6619V58.5303H75.2028V43.9433H73.6727V41.6619H78.631ZM86.8902 46.6949L82.6928 52.2177L87.4173 58.5303H83.3997L78.8814 52.2785L83.0165 46.6949H86.8902ZM20.1318 41.2109C21.1915 41.2109 21.9718 41.9027 21.9718 42.8559C21.9718 43.8091 21.1915 44.4994 20.1318 44.4994C19.0721 44.4994 18.2932 43.8104 18.2932 42.8559H18.289C18.2932 41.9027 19.0721 41.2109 20.1318 41.2109Z" fill="#FFA500"/>
</svg>
