<svg width="643" height="618" viewBox="0 0 643 618" fill="none" xmlns="http://www.w3.org/2000/svg">
<g clip-path="url(#clip0_15_28)">
<path d="M502.173 278.019L25.233 2.28106C14.0187 -4.20202 0 3.89033 0 16.8706V568.342C0 581.312 14.0187 589.415 25.233 582.932L502.173 307.198C513.391 300.711 513.391 284.502 502.173 278.019Z" fill="#6BCB77"/>
<path d="M40.1453 218.734C42.1179 223.473 44.7442 227.911 47.9476 231.919L43.3065 241.663L52.6771 248.702L62.0476 255.74L70.0901 248.55C74.8324 250.51 79.826 251.793 84.9247 252.362L88.5203 262.531L100.116 260.872L111.712 259.217L112.319 248.444C117.052 246.469 121.484 243.839 125.487 240.631L135.218 245.278L142.243 235.909L149.272 226.526L142.095 218.458C144.051 213.709 145.331 208.709 145.899 203.603L156.057 200.003L154.4 188.391L152.744 176.78L141.989 176.175C140.016 171.436 137.388 166.997 134.183 162.989L138.81 153.245L129.443 146.207L120.09 139.169L112.04 146.355C107.298 144.396 102.304 143.114 97.2057 142.546L93.6065 132.374L82.0214 134.047L70.4292 135.706L69.8146 146.476C65.0822 148.452 60.6499 151.083 56.6471 154.292L46.9163 149.645L39.8875 159.028L32.8481 168.394L40.0288 176.451C38.0712 181.199 36.7895 186.2 36.2212 191.305L26.0771 194.899L27.7337 206.51L29.3867 218.118L40.1453 218.734ZM85.2638 156.768C93.2997 155.619 101.495 156.882 108.814 160.398C116.133 163.913 122.247 169.523 126.382 176.517C130.517 183.512 132.488 191.577 132.046 199.694C131.604 207.81 128.768 215.613 123.897 222.115C119.026 228.618 112.339 233.528 104.681 236.224C97.0235 238.921 88.7392 239.284 80.8759 237.266C73.0127 235.248 65.9235 230.94 60.5049 224.888C55.0863 218.836 51.5817 211.31 50.4342 203.264C49.6723 197.921 49.9688 192.48 51.3068 187.251C52.6448 182.023 54.9981 177.11 58.2323 172.792C61.4666 168.475 65.5184 164.838 70.1565 162.088C74.7945 159.339 79.928 157.531 85.2638 156.768Z" fill="white"/>
<path d="M37.9343 104.592C38.8388 106.765 40.0432 108.799 41.5123 110.637L39.3931 115.104L43.6916 118.329L47.9865 121.555L51.674 118.262C53.847 119.158 56.1343 119.747 58.4697 120.009L60.1192 124.671L65.4172 123.911L70.733 123.15L71.0155 118.198C73.1851 117.293 75.217 116.087 77.0518 114.616L81.5128 116.738L84.7411 112.472L87.9482 108.157L84.6563 104.465C85.5538 102.289 86.1423 99.9989 86.4047 97.6599L91.0599 96.0082L90.3147 90.6852L89.5553 85.3799L84.6104 85.097C83.706 82.9245 82.5016 80.8898 81.0324 79.0525L83.1517 74.5854L78.8567 71.3598L74.5617 68.1342L70.8743 71.427C68.708 70.5318 66.4281 69.9426 64.0998 69.6762L62.4503 65.0146L57.1346 65.7751L51.8365 66.5355L51.5539 71.4871C49.3844 72.3928 47.3525 73.5988 45.5176 75.07L41.0566 72.9478L37.8354 77.2487L34.6106 81.5495L37.9025 85.242C37.0079 87.418 36.4206 89.7084 36.1577 92.0469L31.5024 93.6986L32.2618 99.0216L33.0212 104.345L37.9343 104.592ZM58.6322 76.1841C62.316 75.657 66.0733 76.2357 69.4287 77.8469C72.7842 79.4581 75.5871 82.0295 77.4832 85.2359C79.3792 88.4423 80.2832 92.1397 80.0807 95.8605C79.8783 99.5814 78.5785 103.159 76.3458 106.14C74.1131 109.121 71.0478 111.372 67.5374 112.609C64.027 113.845 60.2292 114.012 56.6243 113.087C53.0194 112.162 49.7693 110.188 47.285 107.414C44.8006 104.639 43.1937 101.19 42.6673 97.5008C42.3177 95.0514 42.4534 92.5571 43.0666 90.1602C43.6797 87.7633 44.7583 85.5109 46.2408 83.5314C47.7233 81.552 49.5806 79.8843 51.7067 78.6237C53.8328 77.363 56.1861 76.534 58.6322 76.1841Z" fill="white"/>
<path d="M399.306 241.755C399.306 241.755 427.993 232.418 430.324 233.461C432.655 234.505 432.97 236.149 430.324 237.14C427.679 238.13 402.817 246.99 402.817 246.99C402.817 246.99 438.268 241.876 440.373 242.279C441.606 242.516 442.397 245.657 441.019 246.321C439.642 246.986 404.685 254.166 404.685 254.166C404.685 254.166 437.787 249.452 439.43 250.346C440.867 251.132 440.899 254.237 438.458 254.767C436.018 255.298 405.444 261.488 405.444 261.488C405.444 261.488 429.674 259.645 430.6 261.286C431.165 262.294 431.97 264.968 425.711 265.237C419.453 265.505 404.685 267.776 404.685 267.776L399.306 241.755Z" fill="#EEA886"/>
<path d="M367.687 257.837C367.687 257.837 376.973 254.141 377.637 248.288C378.202 243.301 382.338 237.115 383.606 235.202C385.305 232.651 387.844 222.914 390.815 224.991C393.785 227.067 387.361 241.221 386.576 244.443C385.792 247.665 398.448 240.797 401.619 241.419C404.791 242.042 413.42 264.292 404.254 267.971C395.089 271.649 383.27 269.311 381.766 270.291C380.261 271.271 375.182 273.241 375.182 273.241L367.687 257.837Z" fill="#EEA886"/>
<path d="M255.784 424.618C255.993 427.306 256.215 429.867 256.424 432.155H123.579C123.625 429.913 123.689 427.37 123.738 424.618C124.187 402.439 124.84 366.08 124.554 352.35C124.201 332.748 120.062 281.814 119.256 278.868C119.256 278.868 90.1097 236.464 59.5398 320.171C53.228 337.42 111.108 380.652 103.902 381.971C96.697 383.29 97.0149 396.964 97.0149 396.964C97.0149 396.964 42.5082 349.442 43.6279 335.436C44.2495 327.655 86.9202 214.652 93.4298 209.98C97.8696 206.779 125.773 195.578 140.237 190.089C146.93 187.528 152.03 185.753 153.083 185.689C156.392 185.48 197.205 189.399 197.205 189.399C197.205 189.399 203.054 191.401 209.048 194.153C219.259 198.843 235.185 206.178 246.587 211.628C250.278 213.397 254.894 215.756 258.73 217.79C258.259 231.678 257.435 246.581 256.258 262.499C256.258 262.499 254.138 297.27 253.941 332.395C252.104 340.349 252.422 358.833 252.422 358.833C251.913 376.354 253.863 394.339 254.371 404.391C254.714 410.68 255.24 418.057 255.784 424.618Z" fill="#DBD8E3"/>
<path d="M261.521 424.618C259.603 412.183 257.784 399.238 256.279 386.852V386.756C256.044 384.74 255.808 382.736 255.573 380.743C255.569 380.642 255.558 380.54 255.541 380.439C254.58 372.053 253.796 364.039 253.224 356.693C252.789 351.059 253.174 345.573 253.959 340.179C256.226 302.621 257.36 263.015 257.36 263.015C258.547 246.799 259.253 231.665 259.702 217.517C259.702 217.517 208.452 193.276 203.8 191.882C203.8 191.882 213.516 214.734 220.803 265.827C223.629 285.446 228.81 318.477 232.583 352.194C234.066 365.489 236.514 378.95 238.845 391.623C241.052 403.574 243.161 414.842 244.295 424.604C244.376 425.195 244.44 425.785 244.503 426.373C244.68 428.053 244.885 429.987 245.125 432.134H262.704C262.305 429.673 261.906 427.144 261.521 424.618Z" fill="black"/>
<path d="M171.248 364.863C168.914 387.524 166.356 405.862 164.297 424.636C164.025 427.112 163.753 429.644 163.499 432.173H109.596C110.303 429.676 110.984 427.164 111.641 424.636C117.427 402.792 122.043 380.499 122.043 366.985C122.043 366.985 110.825 286.207 107.071 273.198C107.071 273.198 73.1631 298.31 65.2159 315.715C58.1236 331.277 110.108 378.781 109.501 380.379C105.969 389.741 92.434 406.846 92.434 406.846C92.434 406.846 11.9384 320.249 13.0086 309.578C13.7751 301.815 81.2621 215.533 87.7646 210.861C91.5368 208.155 119.408 198.266 133.088 192.858C135.596 191.864 143.744 188.791 145.983 187.945C148.876 191.175 169.267 213.146 176.331 296.647C177.528 310.728 173.777 340.526 171.248 364.863Z" fill="black"/>
<path d="M156.862 190.032C156.862 190.032 156.58 176.001 151.179 147.618C149.738 140.017 195.234 167.612 195.234 167.612C195.234 167.612 195.093 170.272 195.001 173.865C194.952 175.765 194.924 177.918 194.934 180.079C194.934 180.843 194.934 181.6 194.966 182.35C195.008 184.359 195.1 186.28 195.27 187.914C195.439 189.601 196.435 192.572 196.788 193.389C198.664 197.711 172.184 201.014 156.862 190.032Z" fill="#EEA987"/>
<path d="M185.26 204.735L192.801 214.879C192.801 214.879 188.382 220.806 180.534 216.431L185.26 204.735Z" fill="#D44040"/>
<path d="M190.784 215.293C190.784 215.293 219.394 325.568 213.491 411.405L203.867 428.382L194.86 410.591C194.86 410.591 192.387 257.049 184.55 215.003L190.784 215.293Z" fill="#D44040"/>
<path d="M193.334 195.274L185.26 204.735C185.26 204.735 172.297 202.22 168.493 195.44C164.689 188.66 193.334 195.274 193.334 195.274Z" fill="#EEA987"/>
<path d="M195.185 186.994C195.185 186.994 194.249 194.206 185.26 204.735L195.072 217.935L200.37 190.552L195.185 186.994Z" fill="#C4C1CC"/>
<path d="M156.117 180.133C156.117 180.133 172.16 199.546 185.264 204.735L179.167 219.827L148.668 186.994L156.117 180.133Z" fill="#C4C1CC"/>
<path d="M391.8 273.591C391.8 273.591 322.671 348.799 306.36 344.777C298.812 342.92 287.396 329.883 277.973 317.628C274.861 313.593 271.809 309.359 268.906 305.164C257.324 288.424 248.25 272.374 248.25 272.374C248.25 272.374 214.021 232.202 241.487 214.299C241.487 214.299 253.065 213.128 259.648 217.991C265.727 222.483 280.519 250.76 282.921 256.005C285.323 261.251 304 298.197 305.745 299.293C307.49 300.389 325.832 289.358 335.637 282.748C351.485 272.07 371.392 253.455 371.392 253.455L391.8 273.591Z" fill="black"/>
<path d="M219.189 97.7625C219.189 97.7625 229.184 116.32 224.232 119.207C220.139 121.59 229.029 139.798 230.191 142.776C231.353 145.754 222.774 147.912 220.955 149.825C219.136 151.739 213.732 175.291 206.668 176.016C199.603 176.741 167.773 165.638 159.105 156.616C150.437 147.593 143.324 106.831 149.109 89.6348C154.895 72.4385 201.55 65.3471 219.189 97.7625Z" fill="#EEA886"/>
<path d="M221.184 101.784C221.184 101.784 231.389 81.744 212.856 66.8786C194.323 52.0131 160.15 78.1046 156.297 79.0985C152.444 80.0923 130.594 81.5955 141.635 120.02C151.108 153.012 152.433 154.398 152.433 154.398C152.433 154.398 159.497 135.299 163.513 132.374C169.768 127.822 183.49 128.915 183.49 128.915C183.49 128.915 176.956 111.535 187.164 109.073C197.371 106.612 210.864 97.9429 221.184 101.784Z" fill="#16202E"/>
<path d="M172.598 118.962C171.697 116.579 168.783 106.332 160.002 112.352C151.222 118.372 165.473 137.68 167.006 137.927C168.539 138.175 180.181 139.027 172.598 118.962Z" fill="#EEA886"/>
<path d="M194.934 180.079C194.934 180.843 194.934 181.6 194.966 182.35C168.942 173.603 163.901 160.422 163.901 160.422C172.025 166.173 195.001 173.862 195.001 173.862C194.969 175.782 194.923 177.904 194.934 180.079Z" fill="#A77860"/>
<path d="M100.109 380.075C100.109 380.075 102.581 382.141 105.181 382.119C109.684 382.08 114.816 377.168 119.525 381.631C124.233 386.095 114.318 405.031 110.747 407.249C107.177 409.466 99.0634 405.48 90.3781 394.969C81.6928 384.457 100.109 380.075 100.109 380.075Z" fill="#EEA886"/>
<path d="M117.723 380.362C124.137 382.644 130.421 385.275 136.549 388.242C145.068 392.408 155.068 398.764 154.047 400.925C152.5 404.207 144.899 398.053 136.171 394.498C128.139 391.227 129.171 393.236 129.171 393.236C129.171 393.236 128.909 392.649 136.966 397.936C145.63 403.627 154.7 410.1 153.898 411.882C152.906 414.096 152.595 414.287 149.113 412.745C150.921 414.068 150.815 414.758 150.335 415.575C147.862 419.819 133.812 413.452 128.238 410.941C132.508 412.904 135.429 414.807 132.236 416.413C128.581 418.248 109.144 408.366 101.843 405.505C93.8783 402.386 117.723 380.362 117.723 380.362Z" fill="#EEA886"/>
<path d="M109.494 380.362C109.494 380.362 107.512 391.973 92.4302 406.824C92.4302 406.824 57.855 368.626 51.688 361.482L78.7647 345.764L109.494 380.362Z" fill="#323657"/>
<path d="M507.355 424.618H31.665V432.155H507.355V424.618Z" fill="white"/>
<path d="M282.137 120.476H263.361C259.947 120.476 257.18 123.247 257.18 126.666V145.468C257.18 148.886 259.947 151.657 263.361 151.657H282.137C285.551 151.657 288.318 148.886 288.318 145.468V126.666C288.318 123.247 285.551 120.476 282.137 120.476Z" fill="#4CA1F4"/>
<g opacity="0.69">
<path opacity="0.72" d="M404.501 79.1798H303.181C301.406 79.1798 299.967 80.6208 299.967 82.3984V85.6452C299.967 87.4228 301.406 88.8637 303.181 88.8637H404.501C406.277 88.8637 407.716 87.4228 407.716 85.6452V82.3984C407.716 80.6208 406.277 79.1798 404.501 79.1798Z" fill="#D9D9D9"/>
<path opacity="0.72" d="M419.523 94.834H303.181C301.406 94.834 299.967 96.275 299.967 98.0525V101.299C299.967 103.077 301.406 104.518 303.181 104.518H419.523C421.298 104.518 422.737 103.077 422.737 101.299V98.0525C422.737 96.275 421.298 94.834 419.523 94.834Z" fill="#D9D9D9"/>
</g>
<path d="M282.137 76.2584H263.361C259.947 76.2584 257.18 79.0295 257.18 82.4479V101.25C257.18 104.668 259.947 107.439 263.361 107.439H282.137C285.551 107.439 288.318 104.668 288.318 101.25V82.4479C288.318 79.0295 285.551 76.2584 282.137 76.2584Z" fill="#4CA1F4"/>
<g opacity="0.69">
<path opacity="0.72" d="M378.166 123.398H302.754C301.214 123.398 299.967 124.647 299.967 126.188V130.291C299.967 131.832 301.214 133.082 302.754 133.082H378.166C379.706 133.082 380.953 131.832 380.953 130.291V126.188C380.953 124.647 379.706 123.398 378.166 123.398Z" fill="#D9D9D9"/>
<path opacity="0.72" d="M396.682 139.055H302.863C301.263 139.055 299.967 140.354 299.967 141.956V145.839C299.967 147.441 301.263 148.739 302.863 148.739H396.682C398.281 148.739 399.578 147.441 399.578 145.839V141.956C399.578 140.354 398.281 139.055 396.682 139.055Z" fill="#D9D9D9"/>
</g>
<g opacity="0.69">
<path opacity="0.72" d="M414.109 167.619H303.326C301.471 167.619 299.967 169.125 299.967 170.983V173.94C299.967 175.797 301.471 177.303 303.326 177.303H414.109C415.964 177.303 417.468 175.797 417.468 173.94V170.983C417.468 169.125 415.964 167.619 414.109 167.619Z" fill="#D9D9D9"/>
<path opacity="0.72" d="M404.703 183.273H302.98C301.316 183.273 299.967 184.624 299.967 186.29V189.94C299.967 191.606 301.316 192.957 302.98 192.957H404.703C406.367 192.957 407.716 191.606 407.716 189.94V186.29C407.716 184.624 406.367 183.273 404.703 183.273Z" fill="#D9D9D9"/>
</g>
<path d="M282.137 164.698H263.361C259.947 164.698 257.18 167.469 257.18 170.887V189.689C257.18 193.108 259.947 195.879 263.361 195.879H282.137C285.551 195.879 288.318 193.108 288.318 189.689V170.887C288.318 167.469 285.551 164.698 282.137 164.698Z" fill="#4CA1F4"/>
<path d="M271.686 143.597L263.046 136.081C262.878 135.934 262.739 135.756 262.64 135.556C262.54 135.356 262.48 135.138 262.465 134.915C262.449 134.692 262.477 134.468 262.548 134.256C262.619 134.044 262.73 133.848 262.877 133.679C263.023 133.511 263.201 133.372 263.401 133.272C263.601 133.172 263.818 133.113 264.041 133.097C264.263 133.081 264.487 133.11 264.699 133.18C264.91 133.251 265.106 133.363 265.275 133.51L271.385 138.815L280.071 129.096C280.371 128.759 280.793 128.556 281.243 128.532C281.466 128.519 281.689 128.551 281.9 128.625C282.11 128.699 282.304 128.814 282.471 128.963C282.637 129.112 282.772 129.292 282.869 129.494C282.966 129.695 283.022 129.914 283.034 130.137C283.046 130.36 283.015 130.584 282.941 130.795C282.867 131.005 282.752 131.2 282.603 131.366L271.686 143.597Z" fill="white"/>
<path d="M271.686 187.825L263.046 180.306C262.878 180.159 262.739 179.981 262.64 179.781C262.54 179.581 262.48 179.363 262.465 179.14C262.449 178.917 262.477 178.693 262.548 178.481C262.619 178.269 262.73 178.073 262.877 177.904C263.023 177.735 263.201 177.597 263.401 177.497C263.601 177.397 263.818 177.338 264.041 177.322C264.263 177.306 264.487 177.335 264.699 177.405C264.91 177.476 265.106 177.588 265.275 177.735L271.385 183.04L280.071 173.306C280.218 173.134 280.398 172.993 280.6 172.891C280.802 172.789 281.023 172.729 281.248 172.714C281.474 172.699 281.701 172.729 281.915 172.802C282.129 172.876 282.326 172.992 282.495 173.143C282.664 173.294 282.8 173.477 282.897 173.682C282.994 173.887 283.05 174.109 283.06 174.335C283.07 174.562 283.035 174.788 282.956 175.001C282.878 175.213 282.758 175.408 282.603 175.574L271.686 187.825Z" fill="white"/>
<path d="M272.17 95.651L272.12 94.9648C271.961 93.5501 272.435 91.9833 273.752 90.4023C274.939 89.0052 275.596 87.976 275.596 86.7876C275.596 85.4436 274.752 84.5452 273.095 84.5205C272.145 84.5161 271.216 84.801 270.432 85.3375L269.8 83.6752C270.669 83.0421 272.17 82.6141 273.569 82.6141C276.595 82.6141 277.966 84.4851 277.966 86.5047C277.966 88.2978 276.966 89.5923 275.702 91.1026C274.543 92.4749 274.12 93.635 274.201 94.9931L274.225 95.6793L272.17 95.651ZM271.591 99.3435C271.576 99.1281 271.607 98.9121 271.68 98.7091C271.754 98.5062 271.869 98.3207 272.017 98.1645C272.166 98.0082 272.346 97.8846 272.544 97.8014C272.743 97.7182 272.957 97.6773 273.173 97.6811C273.501 97.6678 273.826 97.7529 274.106 97.9256C274.385 98.0983 274.607 98.3507 274.743 98.6504C274.878 98.9502 274.921 99.2836 274.866 99.608C274.811 99.9324 274.661 100.233 274.434 100.471C274.207 100.709 273.915 100.874 273.594 100.945C273.273 101.015 272.938 100.988 272.633 100.867C272.327 100.746 272.065 100.536 271.879 100.265C271.693 99.9933 271.593 99.6725 271.591 99.3435Z" fill="white"/>
<path d="M502.399 340.915H483.623C480.209 340.915 477.442 343.686 477.442 347.104V365.906C477.442 369.325 480.209 372.096 483.623 372.096H502.399C505.813 372.096 508.581 369.325 508.581 365.906V347.104C508.581 343.686 505.813 340.915 502.399 340.915Z" fill="#4CA1F4"/>
<g opacity="0.69">
<path opacity="0.72" d="M624.764 299.615H523.444C521.669 299.615 520.229 301.056 520.229 302.833V306.08C520.229 307.858 521.669 309.299 523.444 309.299H624.764C626.539 309.299 627.978 307.858 627.978 306.08V302.833C627.978 301.056 626.539 299.615 624.764 299.615Z" fill="#D9D9D9"/>
<path opacity="0.72" d="M639.786 315.273H523.444C521.669 315.273 520.229 316.714 520.229 318.491V321.738C520.229 323.516 521.669 324.957 523.444 324.957H639.786C641.561 324.957 643 323.516 643 321.738V318.491C643 316.714 641.561 315.273 639.786 315.273Z" fill="#D9D9D9"/>
</g>
<path d="M502.399 296.693H483.623C480.209 296.693 477.442 299.465 477.442 302.883V321.685C477.442 325.103 480.209 327.874 483.623 327.874H502.399C505.813 327.874 508.581 325.103 508.581 321.685V302.883C508.581 299.465 505.813 296.693 502.399 296.693Z" fill="#4CA1F4"/>
<g opacity="0.69">
<path opacity="0.72" d="M598.429 343.833H523.016C521.477 343.833 520.229 345.082 520.229 346.623V350.726C520.229 352.267 521.477 353.517 523.016 353.517H598.429C599.968 353.517 601.216 352.267 601.216 350.726V346.623C601.216 345.082 599.968 343.833 598.429 343.833Z" fill="#D9D9D9"/>
<path opacity="0.72" d="M616.944 359.49H523.126C521.526 359.49 520.229 360.789 520.229 362.391V366.274C520.229 367.876 521.526 369.174 523.126 369.174H616.944C618.544 369.174 619.841 367.876 619.841 366.274V362.391C619.841 360.789 618.544 359.49 616.944 359.49Z" fill="#D9D9D9"/>
</g>
<path d="M491.948 364.039L483.309 356.516C482.968 356.22 482.759 355.801 482.727 355.35C482.696 354.9 482.844 354.455 483.139 354.114C483.435 353.773 483.854 353.564 484.303 353.532C484.753 353.5 485.197 353.649 485.538 353.945L491.648 359.25L500.333 349.52C500.482 349.353 500.662 349.218 500.863 349.12C501.064 349.023 501.282 348.967 501.505 348.954C501.728 348.942 501.951 348.973 502.162 349.047C502.373 349.12 502.567 349.235 502.733 349.384C502.9 349.533 503.036 349.713 503.132 349.914C503.229 350.116 503.286 350.334 503.298 350.557C503.311 350.781 503.28 351.004 503.206 351.215C503.132 351.426 503.018 351.62 502.869 351.787L491.948 364.039Z" fill="white"/>
<path d="M379.124 501.482C380.561 507.724 380.311 522.229 380.311 522.229C380.703 535.987 379.17 550.113 378.778 558.004C378.778 558.248 378.753 558.489 378.742 558.74C378.643 560.6 378.52 562.574 378.389 564.576H481.172C481.137 562.68 481.101 560.728 481.07 558.74C480.861 547.093 480.677 534.335 480.66 525.228C504.148 519.017 529.512 510.911 529.049 504.983C528.562 498.882 510.262 409.056 505.148 405.392C501.661 402.881 479.759 394.095 468.414 389.777C463.162 387.771 459.157 386.374 458.337 386.325C455.738 386.162 423.698 389.236 423.698 389.236C423.698 389.236 419.107 390.813 414.409 392.97C406.395 396.656 393.902 402.41 384.934 406.686C382.041 408.062 378.421 409.93 375.397 411.528C375.76 422.429 376.405 434.124 377.333 446.614C377.333 446.614 378.965 473.915 379.124 501.482ZM480.953 511.873C482.217 494.772 487.367 465.395 487.939 463.315C487.939 463.315 490.355 465.607 490.369 465.607C490.384 465.607 491.164 465.717 491.171 465.706C491.421 465.782 491.665 465.874 491.902 465.982C491.902 465.982 507.443 487.734 507.623 499.427C507.708 505.004 495.547 509.001 480.953 511.873Z" fill="#DBD8E3"/>
<path d="M374.567 564.576H388.032C388.34 562.678 388.67 560.732 389.021 558.74C391.302 545.866 394.319 531.318 395.905 517.037C398.864 490.574 402.937 464.645 405.137 449.242C410.859 409.141 418.488 391.199 418.488 391.199C414.843 392.288 374.617 411.327 374.617 411.327C374.97 422.411 375.514 434.316 376.453 447.049C376.453 447.049 377.344 478.142 379.127 507.629C379.795 511.914 379.988 516.26 379.703 520.588C379.254 526.356 378.643 532.652 377.88 539.22C377.88 539.308 377.88 539.393 377.856 539.467C377.676 541.027 377.503 542.594 377.301 544.182C377.301 544.21 377.301 544.225 377.301 544.249C376.725 549.017 376.086 553.887 375.408 558.75C375.133 560.686 374.852 562.628 374.567 564.576Z" fill="black"/>
<path d="M413.074 520.213C416.132 527.439 426.676 545.289 426.676 545.289C426.676 545.289 434.305 543.415 445.53 540.504C446.268 546.87 447.013 552.883 447.727 558.74C447.963 560.696 448.203 562.63 448.433 564.576H488.483C488.012 562.612 487.56 560.666 487.127 558.74C484.679 547.882 482.962 537.78 482.715 530.41C509.559 522.731 535.88 514.14 535.47 510.012C534.862 503.922 514.698 409.749 509.583 406.085C506.634 403.963 484.75 396.182 474.012 391.938C472.052 391.16 465.352 388.641 463.593 387.969C461.314 390.509 445.614 407.861 440.066 473.409C439.38 481.544 440.807 496.441 442.39 511.353C426.121 515.714 412.544 518.978 413.074 520.213ZM486.286 496.82C487.9 483.762 489.737 470.622 491.061 466.024C491.061 466.024 495.589 475.174 495.236 488.593C495.169 491.302 491.722 494.079 486.286 496.82Z" fill="black"/>
<path d="M459.976 387.354C459.976 387.354 455.9 379.644 457.027 357.754C457.338 351.688 425.217 372.135 425.217 372.135C425.217 372.135 425.327 374.225 425.397 377.044C425.433 378.218 425.454 379.52 425.454 380.828C425.454 381.182 425.454 381.557 425.454 381.925C425.454 382.523 425.454 383.113 425.433 383.693C425.433 384.429 425.39 385.147 425.351 385.84C425.316 386.629 425.263 387.375 425.189 388.058C424.95 389.529 424.551 390.97 423.999 392.355C422.522 395.775 447.949 395.966 459.976 387.354Z" fill="#EEA987"/>
<path d="M433.03 401.275L427.11 409.24C427.11 409.24 430.579 413.891 436.739 410.457L433.03 401.275Z" fill="#E8734D"/>
<path d="M428.71 409.569C428.71 409.569 407.02 462.622 411.647 529.996L418.489 542.428L426.203 531.838C426.203 531.838 427.446 442.356 433.602 409.357L428.71 409.569Z" fill="#E8734D"/>
<path d="M426.708 393.851L433.044 401.279C433.044 401.279 443.216 399.305 446.204 393.986C449.193 388.666 426.708 393.851 426.708 393.851Z" fill="#EEA987"/>
<path d="M425.26 387.35C425.26 387.35 425.994 393.009 433.051 401.275L425.351 411.638L421.184 390.141L425.26 387.35Z" fill="#C4C1CC"/>
<path d="M458.04 380.542C458.04 380.542 443.329 397.204 433.044 401.275L437.83 413.124L461.304 387.191L458.04 380.542Z" fill="#C4C1CC"/>
<path d="M306.826 531.269C306.826 531.269 326.351 512.308 339.155 509.153C345.075 507.696 352.874 499.515 360.28 489.895C362.725 486.712 365.119 483.401 367.397 480.108C376.489 466.965 383.613 454.367 383.613 454.367C383.613 454.367 410.481 422.836 388.911 408.78C388.911 408.78 379.671 408.579 374.603 411.334C369.39 414.163 358.274 437.401 356.388 441.517C354.502 445.634 334.101 483.843 332.72 484.688C331.339 485.534 329.071 488.689 320.901 493.092C310.899 498.486 295.185 514.271 295.185 514.271L306.826 531.269Z" fill="black"/>
<path d="M400.535 553.215C400.535 553.215 403.262 553.106 404.42 552.472C404.42 552.472 406.462 551.164 407.952 550.319C408.338 550.096 408.735 549.896 409.143 549.717C410.347 549.24 413.134 548.55 415.702 546.587C418.27 544.624 426.651 536.786 426.651 536.786L421.24 528.461L418.743 520.216C418.743 520.216 399.228 522.158 396.625 523.707C396.38 523.853 396.145 524.014 395.919 524.188C393.842 525.713 392.938 527.725 391.938 528.648C391.585 529.002 388.173 532.631 388.364 534.109C388.625 536.16 389.639 537.476 390.91 538.099C390.91 538.099 391.617 542.092 393.658 543.878C393.658 543.878 394.174 547.585 397.37 549.074C397.385 549.074 398.331 552.773 400.535 553.215Z" fill="#EFAA88"/>
<path d="M431.617 301.277C431.617 301.277 396.346 292.764 403.778 337.481C411.209 382.197 419.672 385.826 441.15 376.91C462.629 367.993 461.145 339.394 462.424 325.392C463.702 311.389 442.899 301.932 431.617 301.277Z" fill="#EEA886"/>
<path d="M450.146 332.246C450.672 328.317 458.461 326.99 458.997 332.897C459.534 338.803 455.229 349.099 452.287 348.035C449.344 346.97 449.426 337.661 450.146 332.246Z" fill="#EEA886"/>
<path d="M460.365 348.257C460.365 348.257 459.658 334.191 454.537 333.678C449.415 333.166 448.532 338.81 448.532 338.81L443.34 339.716C443.34 339.716 445.156 327.422 440.069 325.215C434.983 323.008 406.812 331.507 402.757 327.832C398.702 324.157 400.991 299.183 408.482 295.894C415.974 292.605 436.59 285.223 451.474 295.632C451.474 295.632 463.215 294.469 464.811 303.962C466.408 313.455 463.653 341.262 460.365 348.257Z" fill="#16202E"/>
<path d="M412.113 520.216L426.676 545.286C426.676 545.286 465.257 535.333 474.256 532.79L453.678 508.265C453.678 508.265 423.342 515.204 412.113 520.216Z" fill="#323657"/>
<path d="M425.348 385.872C444.265 383.941 451.598 369.358 451.598 369.358C439.698 381.168 425.461 380.846 425.461 380.846C425.461 381.2 425.461 381.575 425.461 381.943C425.461 382.54 425.461 383.131 425.439 383.711C425.411 384.457 425.387 385.165 425.348 385.872Z" fill="#A77860"/>
<path d="M397.762 465.321L408.051 561.109H272.629L262.34 465.321H397.762Z" fill="#FFC955"/>
<path d="M418.831 552.49H396.212V561.109H418.831V552.49Z" fill="#FFC955"/>
<path d="M513.529 560.911H145.46V566.747H513.529V560.911Z" fill="url(#paint0_linear_15_28)"/>
<path d="M342.715 511.675C343.803 517.008 341.32 522.024 337.166 522.872C333.013 523.721 328.764 520.089 327.676 514.755C326.588 509.422 329.071 504.407 333.225 503.558C337.378 502.709 341.627 506.341 342.715 511.675Z" fill="#CFA345"/>
<path d="M177.514 336.543H55.6477C49.7917 336.543 45.0444 341.297 45.0444 347.161V464.447C45.0444 470.311 49.7917 475.065 55.6477 475.065H177.514C183.37 475.065 188.117 470.311 188.117 464.447V347.161C188.117 341.297 183.37 336.543 177.514 336.543Z" fill="#E0E0E0"/>
<path d="M58.307 459.092L57.3145 458.042L82.9642 433.807L108.925 439.438L133.72 411.122L155.347 412.345L172.187 389.08L173.357 389.929L156.053 413.834L134.342 412.607L109.451 441.033L83.4022 435.381L58.307 459.092Z" fill="#377B93"/>
<path d="M112.952 439.42C113.112 440.166 113.048 440.942 112.768 441.651C112.488 442.36 112.005 442.971 111.379 443.405C110.752 443.839 110.012 444.078 109.25 444.091C108.489 444.104 107.741 443.891 107.1 443.478C106.46 443.066 105.956 442.472 105.651 441.773C105.347 441.074 105.257 440.3 105.392 439.55C105.527 438.799 105.881 438.105 106.409 437.556C106.937 437.007 107.616 436.627 108.36 436.463C108.855 436.354 109.368 436.344 109.867 436.434C110.366 436.523 110.843 436.711 111.27 436.986C111.696 437.261 112.065 437.617 112.353 438.035C112.642 438.453 112.845 438.923 112.952 439.42Z" fill="#E6E6E6"/>
<path d="M110.154 444.715C109.266 444.911 108.34 444.838 107.493 444.506C106.646 444.174 105.916 443.597 105.397 442.85C104.878 442.102 104.592 441.216 104.576 440.306C104.56 439.395 104.814 438.5 105.307 437.735C105.799 436.969 106.508 436.367 107.343 436.005C108.177 435.643 109.1 435.538 109.995 435.702C110.89 435.866 111.715 436.293 112.368 436.928C113.02 437.563 113.469 438.377 113.658 439.268C113.91 440.455 113.683 441.694 113.027 442.714C112.371 443.735 111.338 444.454 110.154 444.715ZM108.526 437.157C107.92 437.287 107.366 437.594 106.934 438.04C106.503 438.486 106.213 439.05 106.102 439.66C105.99 440.271 106.062 440.901 106.309 441.471C106.555 442.04 106.965 442.524 107.486 442.86C108.007 443.197 108.616 443.371 109.236 443.361C109.856 443.35 110.458 443.156 110.968 442.802C111.478 442.449 111.871 441.952 112.098 441.374C112.326 440.797 112.377 440.165 112.245 439.558C112.068 438.747 111.578 438.039 110.881 437.588C110.184 437.138 109.337 436.983 108.526 437.157Z" fill="#377B93"/>
<path d="M137.789 411.291C137.95 412.037 137.887 412.813 137.607 413.523C137.328 414.233 136.845 414.843 136.219 415.278C135.593 415.713 134.852 415.952 134.091 415.965C133.329 415.979 132.581 415.766 131.94 415.354C131.299 414.942 130.795 414.349 130.49 413.65C130.186 412.95 130.095 412.177 130.23 411.426C130.364 410.675 130.718 409.981 131.246 409.432C131.774 408.882 132.453 408.502 133.197 408.338C133.692 408.229 134.204 408.219 134.703 408.308C135.203 408.398 135.679 408.585 136.106 408.859C136.532 409.134 136.901 409.49 137.19 409.907C137.478 410.325 137.682 410.795 137.789 411.291Z" fill="#E6E6E6"/>
<path d="M134.992 416.586C134.103 416.782 133.177 416.709 132.33 416.377C131.483 416.045 130.754 415.469 130.235 414.721C129.715 413.973 129.429 413.088 129.413 412.177C129.397 411.266 129.652 410.372 130.144 409.606C130.637 408.84 131.345 408.238 132.18 407.876C133.015 407.514 133.938 407.409 134.832 407.573C135.727 407.738 136.553 408.164 137.205 408.799C137.857 409.434 138.306 410.248 138.495 411.139C138.748 412.326 138.521 413.565 137.864 414.586C137.208 415.606 136.175 416.325 134.992 416.586ZM133.36 409.046C132.754 409.176 132.201 409.484 131.77 409.93C131.339 410.376 131.049 410.94 130.939 411.551C130.828 412.162 130.9 412.791 131.147 413.361C131.393 413.93 131.803 414.413 132.324 414.749C132.845 415.086 133.454 415.259 134.074 415.249C134.694 415.238 135.296 415.044 135.806 414.691C136.315 414.337 136.708 413.84 136.936 413.263C137.163 412.685 137.214 412.054 137.083 411.447C136.907 410.634 136.416 409.925 135.718 409.475C135.02 409.024 134.172 408.87 133.36 409.046Z" fill="#377B93"/>
<path d="M159.257 412.154C159.417 412.9 159.353 413.676 159.073 414.385C158.793 415.095 158.31 415.705 157.684 416.139C157.058 416.573 156.317 416.812 155.556 416.825C154.794 416.838 154.046 416.625 153.405 416.212C152.765 415.8 152.261 415.207 151.957 414.508C151.653 413.808 151.562 413.035 151.697 412.284C151.832 411.533 152.186 410.84 152.714 410.29C153.242 409.741 153.921 409.361 154.665 409.198C155.161 409.088 155.673 409.078 156.172 409.168C156.671 409.258 157.148 409.445 157.575 409.72C158.002 409.995 158.37 410.351 158.658 410.769C158.947 411.187 159.15 411.658 159.257 412.154Z" fill="#E6E6E6"/>
<path d="M156.47 417.449C155.582 417.645 154.656 417.572 153.809 417.24C152.962 416.908 152.233 416.332 151.714 415.584C151.194 414.836 150.909 413.951 150.892 413.041C150.876 412.13 151.13 411.236 151.622 410.47C152.115 409.704 152.823 409.102 153.657 408.74C154.492 408.378 155.415 408.272 156.309 408.436C157.204 408.599 158.029 409.026 158.682 409.66C159.334 410.294 159.784 411.108 159.974 411.999C160.227 413.186 160.001 414.426 159.344 415.447C158.688 416.469 157.654 417.188 156.47 417.449ZM154.828 409.923C154.222 410.054 153.668 410.362 153.237 410.808C152.806 411.254 152.517 411.817 152.406 412.428C152.295 413.039 152.368 413.668 152.615 414.238C152.861 414.807 153.271 415.29 153.792 415.627C154.313 415.963 154.922 416.136 155.542 416.126C156.161 416.116 156.764 415.921 157.273 415.568C157.783 415.214 158.176 414.717 158.403 414.14C158.631 413.563 158.682 412.931 158.55 412.324C158.373 411.513 157.881 410.804 157.184 410.354C156.486 409.904 155.639 409.749 154.828 409.923Z" fill="#377B93"/>
<path d="M86.9274 434.132C87.0885 434.878 87.0253 435.655 86.7459 436.364C86.4664 437.074 85.9833 437.684 85.3574 438.119C84.7315 438.554 83.9911 438.793 83.2295 438.807C82.4679 438.82 81.7194 438.607 81.0786 438.195C80.4377 437.783 79.9332 437.19 79.6288 436.491C79.3243 435.791 79.2337 435.018 79.3682 434.267C79.5027 433.516 79.8564 432.822 80.3846 432.273C80.9128 431.723 81.5918 431.343 82.3358 431.179C82.831 431.07 83.3427 431.061 83.8417 431.15C84.3407 431.24 84.8171 431.427 85.2436 431.702C85.6702 431.976 86.0385 432.332 86.3274 432.749C86.6163 433.166 86.8202 433.636 86.9274 434.132Z" fill="#E6E6E6"/>
<path d="M84.1301 439.431C83.242 439.626 82.3159 439.554 81.4691 439.222C80.6223 438.89 79.8931 438.313 79.3739 437.566C78.8546 436.818 78.5687 435.933 78.5525 435.022C78.5362 434.112 78.7903 433.217 79.2826 432.451C79.7748 431.686 80.483 431.084 81.3174 430.722C82.1517 430.359 83.0747 430.254 83.9692 430.417C84.8638 430.581 85.6896 431.007 86.3421 431.641C86.9945 432.276 87.4441 433.09 87.6339 433.98C87.8871 435.168 87.6608 436.408 87.0043 437.429C86.3478 438.45 85.3146 439.17 84.1301 439.431ZM82.5019 431.887C81.8961 432.018 81.3426 432.326 80.9116 432.771C80.4806 433.217 80.1914 433.781 80.0805 434.392C79.9697 435.003 80.0421 435.632 80.2888 436.202C80.5355 436.771 80.9452 437.254 81.4662 437.59C81.9873 437.927 82.5961 438.1 83.2158 438.09C83.8355 438.079 84.4381 437.885 84.9475 437.532C85.4569 437.178 85.8502 436.681 86.0775 436.104C86.3048 435.527 86.356 434.895 86.2247 434.288C86.0486 433.476 85.5577 432.766 84.8596 432.316C84.1616 431.866 83.3135 431.711 82.5019 431.887Z" fill="#377B93"/>
<path d="M95.0828 449.295H79.3086V452.337H95.0828V449.295Z" fill="white"/>
<path d="M106.053 418.079H90.2793V421.12H106.053V418.079Z" fill="white"/>
<path d="M138.778 439.83H123.004V442.872H138.778V439.83Z" fill="white"/>
<path d="M152.927 397.109H137.153V400.15H152.927V397.109Z" fill="white"/>
<path d="M175.843 422.567H160.069V425.609H175.843V422.567Z" fill="white"/>
<path d="M111.754 347.129H55.5698V352.65H111.754V347.129Z" fill="#4E8C63"/>
<path d="M111.754 361.984H55.5698V367.505H111.754V361.984Z" fill="white"/>
<path d="M111.754 376.842H55.5698V382.363H111.754V376.842Z" fill="white"/>
<path d="M132.597 347.129H123.219V352.65H132.597V347.129Z" fill="#4E8C63"/>
<path d="M132.597 361.984H123.219V367.505H132.597V361.984Z" fill="white"/>
<path d="M132.597 376.842H123.219V382.363H132.597V376.842Z" fill="white"/>
<path d="M214.154 434.866L208.12 433.838L205.638 448.44L211.672 449.469L214.154 434.866Z" fill="#2D3038"/>
<path d="M198.124 429.107C198.124 429.411 198.092 429.715 198.071 430.019H209.727C209.748 429.715 209.758 429.411 209.769 429.107H198.124ZM68.0063 425.881C68.0063 426.235 68.0063 426.588 68.0063 426.942C68.0275 428.42 68.0911 429.885 68.2183 431.342C68.5154 435.438 69.1761 439.499 70.1927 443.477C73.3439 455.851 79.7837 467.14 88.8278 476.143C89.181 476.497 89.5342 476.851 89.8662 477.169C91.2543 478.51 92.6919 479.801 94.2177 481.014C106.842 491.321 122.638 496.937 138.926 496.908C139.209 496.908 139.492 496.908 139.774 496.908C152.186 496.783 164.344 493.38 175.021 487.04C189.662 478.354 200.709 464.7 206.159 448.556C206.712 446.889 207.212 445.199 207.657 443.488C208.441 440.396 209.018 437.255 209.384 434.087C209.455 433.407 209.529 432.725 209.582 432.035C209.635 431.345 209.698 430.716 209.727 430.044C209.748 429.74 209.758 429.436 209.769 429.131C209.801 428.463 209.822 427.802 209.832 427.133C209.832 426.723 209.832 426.312 209.832 425.906C209.832 390.357 183.748 360.905 149.692 355.71C149.032 355.603 148.375 355.508 147.704 355.427C146.972 355.342 146.238 355.257 145.507 355.193C144.846 355.133 144.179 355.08 143.518 355.038C141.989 354.931 140.452 354.893 138.926 354.893C137.616 354.893 136.32 354.924 135.041 354.995C132.834 355.112 130.654 355.349 128.5 355.657C116.545 357.447 105.243 362.261 95.6634 369.644C86.0837 377.027 78.5426 386.734 73.753 397.848C73.647 398.078 73.5517 398.318 73.4598 398.555C73.368 398.792 73.2691 399.008 73.1879 399.227C72.6439 400.536 72.1483 401.863 71.7009 403.21C70.514 406.725 69.6116 410.33 69.0024 413.99C68.8223 414.963 68.688 415.949 68.5503 416.943C68.5503 417.113 68.5185 417.297 68.5008 417.456C68.5008 417.456 68.5008 417.477 68.5008 417.499C68.4887 417.582 68.4816 417.666 68.4796 417.75C68.4598 417.847 68.4457 417.945 68.4373 418.043V418.118C68.4245 418.165 68.4174 418.214 68.4161 418.263C68.4038 418.336 68.3967 418.411 68.3949 418.485C68.3737 418.662 68.3525 418.839 68.3419 419.019C68.2395 420.109 68.1547 421.209 68.1017 422.309C68.1017 422.454 68.0805 422.613 68.0805 422.758L68.0487 423.465C68.0169 424.258 68.0063 425.064 68.0063 425.881ZM83.9006 447.976L83.6286 447.286C83.4308 446.773 83.2401 446.26 83.0529 445.733L82.6255 444.478C82.5196 444.163 82.4136 443.848 82.3218 443.534C82.3218 443.512 82.3218 443.495 82.3006 443.473C82.2781 443.415 82.2604 443.354 82.2476 443.293C82.0816 442.77 81.9332 442.232 81.7884 441.701L81.6189 441.082C81.4635 440.517 81.3257 439.94 81.1915 439.364C81.1915 439.31 81.1597 439.25 81.1491 439.187C81.0326 438.653 80.9195 438.126 80.8136 437.584C80.7606 437.365 80.7217 437.142 80.6794 436.923C80.5522 436.255 80.4392 435.572 80.3262 434.889C80.139 433.697 80.0012 432.491 79.8846 431.278C79.8458 430.868 79.814 430.447 79.7822 430.03C79.7822 429.892 79.7822 429.768 79.761 429.63C79.7292 429.064 79.6975 428.502 79.6763 427.936V427.766C79.6763 427.642 79.6763 427.504 79.6763 427.37C79.6763 426.875 79.6551 426.383 79.6551 425.892C79.6551 425.4 79.6551 424.969 79.6763 424.519C79.7072 422.697 79.8333 420.878 80.0542 419.069C80.0649 418.881 80.0861 418.693 80.1178 418.507C80.1155 418.502 80.1144 418.496 80.1144 418.491C80.1144 418.485 80.1155 418.48 80.1178 418.475C80.1155 418.473 80.1137 418.47 80.1125 418.468C80.1112 418.465 80.1106 418.462 80.1106 418.459C80.1106 418.456 80.1112 418.453 80.1125 418.45C80.1137 418.447 80.1155 418.445 80.1178 418.443C80.112 418.404 80.112 418.365 80.1178 418.326V418.305C80.1178 418.284 80.1178 418.273 80.1178 418.263C81.2214 409.619 84.2264 401.329 88.9161 393.989C94.286 385.57 101.683 378.638 110.426 373.829C112.747 372.549 115.152 371.428 117.625 370.476C118.412 370.175 119.218 369.882 120.023 369.617C124.595 368.073 129.341 367.106 134.151 366.738C135.719 366.6 137.298 366.539 138.902 366.539C139.382 366.539 139.852 366.539 140.332 366.561C140.887 366.561 141.431 366.589 141.989 366.61C142.384 366.631 142.783 366.663 143.179 366.695C143.288 366.697 143.396 366.704 143.504 366.716C144.165 366.759 144.832 366.822 145.493 366.893L145.994 366.957C146.255 366.989 146.527 367.02 146.789 367.063C147.05 367.105 147.386 367.134 147.69 367.187C148.361 367.282 149.018 367.399 149.678 367.512L149.855 367.544C150.367 367.639 150.879 367.742 151.395 367.859C151.423 367.859 151.455 367.859 151.486 367.88C151.695 367.922 151.917 367.972 152.126 368.025C152.606 368.131 153.079 368.244 153.539 368.379C153.747 368.421 153.955 368.474 154.157 368.534C154.701 368.683 155.245 368.828 155.789 368.998C156.332 369.167 156.823 369.312 157.336 369.479C157.576 369.553 157.816 369.638 158.042 369.719C159.066 370.073 160.08 370.427 161.076 370.851C161.348 370.957 161.62 371.07 161.892 371.205C162.309 371.381 162.718 371.558 163.135 371.749C163.488 371.894 163.806 372.043 164.131 372.209C164.622 372.428 165.103 372.672 165.583 372.916C166.127 373.188 166.661 373.471 167.186 373.765C167.79 374.091 168.377 374.423 168.952 374.77C170.167 375.477 171.34 376.238 172.485 377.033C172.979 377.369 173.459 377.712 173.94 378.094C174.547 378.526 175.134 378.975 175.706 379.435C176.218 379.845 176.73 380.263 177.232 380.694C177.733 381.126 178.259 381.575 178.761 382.034C184.872 387.592 189.754 394.369 193.091 401.93C196.429 409.491 198.148 417.668 198.138 425.934C198.138 426.341 198.138 426.751 198.138 427.161C198.138 427.83 198.106 428.491 198.064 429.16C198.064 429.464 198.032 429.768 198.011 430.072C197.961 430.744 197.908 431.402 197.834 432.063C197.647 433.949 197.364 435.802 196.997 437.638C196.601 439.625 196.101 441.591 195.499 443.526C195.03 445.054 194.496 446.565 193.899 448.029C189.549 458.899 182.083 468.237 172.443 474.867C162.802 481.497 151.419 485.122 139.725 485.286C139.442 485.286 139.16 485.286 138.877 485.286C128.113 485.29 117.551 482.358 108.325 476.806C99.0991 471.254 91.5567 463.292 86.5073 453.773C86.2459 453.267 85.9845 452.765 85.7337 452.262L85.2746 451.3C85.0874 450.922 84.9214 450.544 84.7412 450.158L84.5717 449.78C84.4269 449.426 84.2785 449.108 84.1443 448.765L83.9006 447.976Z" fill="#323657"/>
<path opacity="0.1" d="M180.699 467.707C203.766 444.609 203.766 407.159 180.699 384.061C157.633 360.962 120.234 360.962 97.1668 384.061C74.0998 407.159 74.0998 444.609 97.1667 467.707C120.234 490.805 157.633 490.805 180.699 467.707Z" fill="#B8B8B8"/>
<path opacity="0.3" d="M178.825 381.981C178.825 381.981 101.9 372.432 86.5708 453.73C80.0286 441.383 78.0469 427.12 80.9746 413.454C83.9024 399.787 91.5518 387.594 102.576 379.02C113.6 370.446 127.291 366.042 141.239 366.584C155.187 367.126 168.497 372.578 178.825 381.981Z" fill="#869AC2"/>
<path d="M88.831 519.788H56.1807V521.73H88.831V519.788Z" fill="url(#paint1_linear_15_28)"/>
<path d="M60.557 615.043H63.418L63.418 526.781H60.557L60.557 615.043Z" fill="#706865"/>
<path d="M106.414 519.237H83.7202V522.01H106.414V519.237Z" fill="#CCBDB7"/>
<path d="M99.3674 495.589H90.7739V521.726H99.3674V495.589Z" fill="#FFAB55"/>
<path d="M170.213 521.762H44.4688V526.781H170.213V521.762Z" fill="#B59074"/>
<path d="M20.3342 491.387C20.3342 491.387 18.9603 510.699 22.729 513.012C25.0884 514.458 34.5013 519.343 34.2223 520.259C33.9432 521.175 28.9242 528.394 28.9242 528.394C28.9242 528.394 10.8295 516.485 10.2432 512.729C9.67449 509.058 11.1332 484.434 13.6163 483.316C15.4777 482.467 16.4419 483.168 18.8049 484.911C22.1038 487.359 20.3342 491.387 20.3342 491.387Z" fill="#FFC955"/>
<path d="M53.2881 496.901L54.8811 496.311C54.8811 496.311 52.8925 491.638 52.0236 491.752C51.2682 491.866 50.5195 492.02 49.7808 492.215L53.2881 496.901Z" fill="#EAD8CF"/>
<path d="M53.6519 497.708C53.447 497.556 50.2646 491.437 50.2646 491.437L43.4619 492.363L47.1352 499.607L53.6519 497.708Z" fill="#DA9B5B"/>
<path d="M42.5789 602.993C42.5789 602.993 42.0173 606.884 41.9466 607.488C41.876 608.093 35.6949 607.135 35.6949 607.135L35.1934 602.484C35.1934 602.484 41.8054 602.441 42.5789 602.993Z" fill="#424773"/>
<path d="M42.0316 606.99C42.0316 606.99 43.9919 609.345 45.8851 610.371C47.7783 611.397 50.7594 611.786 51.8896 612.868C52.6985 613.632 54.8353 616.935 46.9659 616.868C39.0965 616.801 35.3101 617.335 34.4554 616.069C33.6006 614.803 35.6775 606.724 35.6775 606.724C35.6775 606.724 37.5141 607.396 42.0316 606.99Z" fill="#292C47"/>
<path d="M82.2016 603.035C82.2016 603.035 81.6364 606.926 81.5693 607.531C81.5022 608.136 75.3141 607.177 75.3141 607.177L74.8125 602.526C74.8125 602.526 81.428 602.48 82.2016 603.035Z" fill="#424773"/>
<path d="M81.633 607.029C81.633 607.029 83.5932 609.381 85.4864 610.41C87.3796 611.439 94.3554 612.277 95.4751 613.338C96.2839 614.106 97.6296 617.194 86.5566 616.907C78.6908 616.702 74.9009 617.37 74.0496 616.108C73.1984 614.845 75.2682 606.763 75.2682 606.763C75.2682 606.763 77.0236 607.481 81.633 607.029Z" fill="#292C47"/>
<path d="M22.6335 535.481C22.6335 535.481 45.1186 539.291 50.1836 540.079C55.2485 540.868 82.795 547.737 86.2388 549.827C88.9797 551.493 84.8012 591.456 83.8264 606.703H72.9901L72.2059 560.965C59.1903 561.293 49.9045 557.919 40.4174 559.359C30.9303 560.798 23.0397 562.85 17.0176 554.761C17.0282 554.782 16.8057 537.25 22.6335 535.481Z" fill="#292C47"/>
<path d="M44.7936 606.763L34.2257 606.109L33.2014 560.986C27.5995 561.127 25.6816 560.773 21.1465 560.222L12.606 540.362C20.0833 541.858 44.0412 547.91 47.2378 549.848C49.9786 551.514 45.772 591.516 44.7936 606.763Z" fill="#292C47"/>
<path d="M32.9821 451.102C32.9821 451.102 41.2259 448.825 44.3695 455.23C47.513 461.635 46.0896 473.781 41.9359 474.923C37.7822 476.066 31.8095 474.753 30.0823 470.764C28.3551 466.774 26.9847 461.112 27.3979 457.44C27.8112 453.769 30.7958 451.98 32.9821 451.102Z" fill="#EEA886"/>
<path d="M39.7816 473.646C39.7816 473.646 39.6898 478.52 40.2266 479.556C40.7635 480.593 28.751 480.335 28.751 480.335C28.751 480.335 30.6442 474.485 29.5704 469.501C28.4967 464.518 39.7816 473.646 39.7816 473.646Z" fill="#EEA886"/>
<path d="M28.924 467.655C28.924 467.655 29.5633 468.964 32.675 468.751C35.7867 468.539 39.8839 464.783 41.2049 464.447C42.5259 464.111 42.6177 463.361 42.6177 463.361L43.3241 464.603L44.6769 464.811C44.6769 464.811 43.7551 461.045 45.7577 459.718C47.7604 458.392 44.8571 447.718 34.7201 450.292C34.7201 450.292 26.9813 451.707 26.8754 456.04C26.7694 460.373 27.4193 465.363 28.924 467.655Z" fill="#3A3F47"/>
<path d="M40.8586 479.433C40.8586 479.433 40.8233 477.448 39.9261 477.257C39.029 477.067 30.485 475.889 29.383 476.324L28.9097 478.945C28.9097 478.945 31.0324 480.253 40.8586 479.433Z" fill="#E2D2CA"/>
<path d="M43.3314 462.473C43.1019 460.846 41.2546 458.979 40.195 461.511C39.1354 464.044 40.9014 467.736 42.0987 467.524C43.2961 467.312 43.6458 464.68 43.3314 462.473Z" fill="#EEA886"/>
<path d="M76.6455 502.882C76.6935 502.906 76.7003 502.91 76.6455 502.882V502.882Z" fill="#323657"/>
<path d="M30.5807 452.266C30.5807 452.266 20.532 451.792 28.8147 467.499L30.5807 452.266Z" fill="#3A3F47"/>
<path d="M8.19092 612.115L8.93618 614.219L40.5233 604.422L39.0081 600.156L8.19092 612.115Z" fill="#918783"/>
<path d="M41.6042 568.533H38.0156V602.919H41.6042V568.533Z" fill="#918783"/>
<path d="M50.3988 566.708H29.2241V568.735H50.3988V566.708Z" fill="#5E5854"/>
<path d="M71.7115 612.115L70.9627 614.219L39.3755 604.422L40.7671 599.891L71.7115 612.115Z" fill="#918783"/>
<path d="M49.456 613.996V616.444L39.3755 604.422L40.7671 599.891L49.456 613.996Z" fill="#918783"/>
<path d="M74.6605 615.061C74.6605 615.646 74.4873 616.217 74.1628 616.704C73.8384 617.19 73.3772 617.569 72.8377 617.793C72.2981 618.016 71.7044 618.075 71.1316 617.961C70.5588 617.847 70.0327 617.565 69.6197 617.152C69.2068 616.738 68.9256 616.211 68.8116 615.638C68.6977 615.064 68.7562 614.47 68.9797 613.929C69.2031 613.389 69.5816 612.927 70.0672 612.602C70.5528 612.277 71.1237 612.104 71.7077 612.104C72.4908 612.104 73.2419 612.416 73.7956 612.97C74.3494 613.525 74.6605 614.277 74.6605 615.061Z" fill="#BFB2AC"/>
<path d="M49.7064 615.061C49.7064 615.646 49.5332 616.217 49.2087 616.704C48.8843 617.19 48.4231 617.569 47.8836 617.793C47.344 618.016 46.7503 618.075 46.1775 617.961C45.6047 617.847 45.0786 617.565 44.6656 617.152C44.2527 616.738 43.9715 616.211 43.8575 615.638C43.7436 615.064 43.8021 614.47 44.0256 613.929C44.249 613.389 44.6275 612.927 45.1131 612.602C45.5987 612.277 46.1696 612.104 46.7536 612.104C47.5367 612.104 48.2878 612.416 48.8415 612.97C49.3953 613.525 49.7064 614.277 49.7064 615.061Z" fill="#BFB2AC"/>
<path d="M11.1434 615.061C11.1434 615.646 10.9702 616.217 10.6458 616.704C10.3213 617.19 9.86013 617.569 9.32058 617.793C8.78103 618.016 8.18732 618.075 7.61453 617.961C7.04174 617.847 6.51561 617.565 6.10265 617.152C5.68969 616.738 5.40847 616.211 5.29453 615.638C5.1806 615.064 5.23907 614.47 5.46256 613.929C5.68605 613.389 6.06452 612.927 6.55011 612.602C7.03569 612.277 7.60658 612.104 8.19059 612.104C8.97372 612.104 9.72478 612.416 10.2785 612.97C10.8323 613.525 11.1434 614.277 11.1434 615.061Z" fill="#BFB2AC"/>
<path d="M61.2495 559.033H18.6529C16.5637 559.033 14.8701 560.729 14.8701 562.821V562.92C14.8701 565.012 16.5637 566.708 18.6529 566.708H61.2495C63.3387 566.708 65.0324 565.012 65.0324 562.92V562.821C65.0324 560.729 63.3387 559.033 61.2495 559.033Z" fill="#E2D2CA"/>
<path d="M154.125 526.781H151.264V615.043H154.125V526.781Z" fill="#706865"/>
<path d="M128.397 455.76H61.7401C59.6548 455.76 57.9644 457.453 57.9644 459.541V504.403C57.9644 506.491 59.6548 508.184 61.7401 508.184H128.397C130.482 508.184 132.173 506.491 132.173 504.403V459.541C132.173 457.453 130.482 455.76 128.397 455.76Z" fill="url(#paint2_linear_15_28)"/>
<path d="M129.27 458.593H60.8716V499.968H129.27V458.593Z" fill="#F5F7FF"/>
<path d="M129.27 458.593H60.8716V461.886H129.27V458.593Z" fill="#CECFD6"/>
<path d="M76.5858 464.362H64.0647C63.3683 464.362 62.8037 464.927 62.8037 465.625V466.162C62.8037 466.86 63.3683 467.425 64.0647 467.425H76.5858C77.2822 467.425 77.8467 466.86 77.8467 466.162V465.625C77.8467 464.927 77.2822 464.362 76.5858 464.362Z" fill="#CECFD6"/>
<path d="M75.2401 469.476H65.4104C63.9708 469.476 62.8037 470.645 62.8037 472.087V495.653C62.8037 497.094 63.9708 498.263 65.4104 498.263H75.2401C76.6797 498.263 77.8467 497.094 77.8467 495.653V472.087C77.8467 470.645 76.6797 469.476 75.2401 469.476Z" fill="#CECFD6"/>
<path d="M110.433 521.829V520.895C110.433 520.895 109.123 515.095 99.8584 515.095C90.5938 515.095 90.781 521.815 90.781 521.815L110.433 521.829Z" fill="#2E436E"/>
<path d="M90.668 515.954C90.668 515.954 92.6812 515.799 93.4194 515.353C94.1576 514.907 98.5692 511.936 99.604 512.414C100.639 512.891 107.537 515.003 107.297 516.014C107.057 517.026 106.421 516.927 105.933 516.747C105.446 516.566 100.438 515.516 99.9961 515.686C99.9961 515.686 104.916 517.482 104.941 518.794C104.966 520.107 103.913 520.425 103.447 520.917C102.981 521.408 102.419 522.643 101.155 522.738C99.8902 522.834 93.702 520.676 92.4269 520.581C91.1518 520.485 88.7995 520.658 88.637 520.45C88.4745 520.241 90.668 515.954 90.668 515.954Z" fill="#EEA886"/>
<path d="M54.0404 482.184C47.6227 481.053 40.8694 479.433 40.8694 479.433L28.9169 478.945C28.9169 478.945 17.9499 481.364 13.6302 483.316C13.2205 483.5 13.2205 493.113 12.0938 495.635L15.6753 503.2C15.6753 503.2 17.745 518.186 18.1759 524.853C18.3702 527.912 17.6179 554.425 17.6179 554.425C17.6179 554.425 18.6775 554.955 26.8471 555.84C35.0168 556.724 55.3826 555.514 55.5098 554.549C55.6369 553.583 51.568 518.646 51.3737 516.835C51.0947 514.055 52.1755 501.216 52.1755 501.216C53.7119 503.285 57.629 512.619 61.7121 517.061C64.1138 519.675 76.0098 521.277 78.2491 521.352C83.1304 521.514 92.0241 522.487 92.2926 522.009C92.501 521.727 93.0696 514.098 92.5116 513.91C92.0242 513.747 75.4906 512.796 71.2557 510.546C69.7051 509.722 65.0746 499.607 65.0746 499.607C65.0746 499.607 57.5725 483.776 54.0404 482.184Z" fill="#FFC955"/>
<path d="M30.4779 505.68H10.4158C6.40324 505.68 3.15039 508.937 3.15039 512.955V546.382C3.15039 550.4 6.40324 553.657 10.4158 553.657H30.4779C34.4905 553.657 37.7433 550.4 37.7433 546.382V512.955C37.7433 508.937 34.4905 505.68 30.4779 505.68Z" fill="#E2D2CA"/>
<path d="M31.6117 564.798C26.5149 564.798 22.3789 563.083 19.3166 559.698C12.4008 552.055 13.6441 538.615 13.7006 538.046C13.7507 537.537 14.0007 537.069 14.3955 536.744C14.7902 536.42 15.2975 536.266 15.8057 536.316C16.3139 536.366 16.7814 536.617 17.1053 537.012C17.4292 537.407 17.583 537.915 17.5329 538.424C17.5329 538.58 16.4168 550.761 22.1775 557.12C24.5087 559.691 27.5957 560.943 31.6117 560.943C32.1222 560.943 32.6118 561.146 32.9728 561.508C33.3338 561.869 33.5366 562.36 33.5366 562.871C33.5366 563.382 33.3338 563.872 32.9728 564.234C32.6118 564.595 32.1222 564.798 31.6117 564.798Z" fill="#E2D2CA"/>
<path d="M80.8843 479.281C80.8836 481.32 81.3218 483.335 82.169 485.189C83.0162 487.043 84.2526 488.693 85.7938 490.026C85.9563 490.167 86.1223 490.305 86.2919 490.439C86.4826 490.588 86.6769 490.736 86.8746 490.878C88.786 492.233 91.0033 493.092 93.3277 493.379C93.748 493.428 94.1719 493.463 94.6028 493.478H95.069C95.5282 493.478 95.9838 493.456 96.4289 493.414C96.9245 493.365 97.4173 493.291 97.9053 493.191C100.015 492.763 101.999 491.857 103.705 490.542C104.209 490.153 104.687 489.732 105.135 489.279L105.393 489.014C105.711 488.66 106.011 488.307 106.294 487.953C107.674 486.165 108.607 484.073 109.017 481.851C109.428 479.629 109.302 477.34 108.652 475.177C108.002 473.013 106.846 471.035 105.279 469.409C103.713 467.782 101.781 466.553 99.6452 465.824C97.5092 465.095 95.2303 464.887 92.9978 465.217C90.7654 465.547 88.6437 466.406 86.8091 467.721C84.9745 469.037 83.4799 470.772 82.4495 472.783C81.419 474.793 80.8824 477.021 80.8843 479.281Z" fill="#EEF0F7"/>
<path d="M85.8291 487.118L86.8887 490.878C88.8001 492.233 91.0173 493.092 93.3418 493.379C93.7621 493.428 94.1859 493.463 94.6169 493.478H95.0831C95.5423 493.478 95.9979 493.456 96.4429 493.414C96.9386 493.365 97.4314 493.291 97.9193 493.191C100.029 492.763 102.013 491.857 103.719 490.542C103.917 489.301 104.132 487.925 104.323 486.651C103.281 486.262 99.9609 485.134 97.8699 484.423L97.7816 484.395L97.6438 484.349L97.2906 484.229L96.9657 484.119L96.125 483.836H96.0827H96.0615L93.2358 484.048L92.7625 484.084H92.6177H92.5541C92.3846 484.13 91.8901 484.257 91.2367 484.459C89.5554 484.971 86.8499 485.944 85.8291 487.118Z" fill="#D9C7C1"/>
<path d="M94.3307 472.228C94.3307 472.228 90.954 472.797 91.5262 478.092C92.0984 483.387 95.0795 482.92 95.2808 482.913C95.4821 482.906 98.2795 482.977 98.4243 476.501C98.4243 476.501 98.4703 471.715 94.3307 472.228Z" fill="#EEA987"/>
<path d="M92.8505 481.367C92.8505 481.367 92.967 483.546 92.7622 484.02C92.5573 484.494 95.4748 485.994 97.2867 484.285C97.2867 484.285 96.9335 481.905 97.0324 481.063C97.1313 480.221 92.8505 481.367 92.8505 481.367Z" fill="#EEA987"/>
<path d="M91.4591 476.596C91.4591 476.596 91.0847 476.204 90.9505 476.596C90.8163 476.989 91.5509 478.782 91.505 478.863C91.505 478.863 91.5757 479.019 91.6604 478.93C91.7452 478.842 91.4591 476.596 91.4591 476.596Z" fill="#EEA987"/>
<path d="M98.3852 476.451C98.3852 476.451 98.7384 476.044 98.8938 476.451C99.0492 476.858 98.5018 478.63 98.4347 478.743C98.4347 478.743 98.3181 478.923 98.2263 478.842C98.1344 478.761 98.3852 476.451 98.3852 476.451Z" fill="#EEA987"/>
<path d="M91.2399 476.147C91.3564 476.854 91.4695 477.41 91.4695 477.41L91.9604 478.05C91.9396 477.501 91.955 476.952 92.0063 476.405C92.0346 476.32 92.0664 476.172 92.1017 476.009C92.141 475.783 92.1929 475.56 92.2571 475.341C92.3172 475.178 95.1499 474.35 97.6718 475.514C97.6718 475.514 97.6506 475.73 97.6506 475.974C97.6506 476.218 97.6823 476.575 97.813 476.624C98.0567 476.713 97.9543 478.287 97.9543 478.287L98.3464 477.834C98.3464 477.834 98.4629 477.01 98.5724 476.066C98.6007 475.846 98.6254 475.62 98.6501 475.394C98.7066 474.442 98.6113 472.716 97.3751 471.701C96.5415 471.347 95.2099 471.04 92.9882 471.701C92.7603 471.71 92.5372 471.769 92.3348 471.874C90.9538 473.409 91.2399 476.147 91.2399 476.147Z" fill="#E8734D"/>
<path d="M96.8029 482.206C96.5795 482.454 96.3014 482.648 95.9907 482.77C95.6799 482.893 95.345 482.942 95.0122 482.913C94.6822 482.927 94.3528 482.874 94.0438 482.758C93.7348 482.641 93.4527 482.463 93.2144 482.234C93.2144 482.234 93.8077 483.475 95.0157 483.461C96.2237 483.447 96.8029 482.206 96.8029 482.206Z" fill="#C78D71"/>
<path d="M97.6294 484.342C97.6294 484.342 96.7252 485.919 95.0086 486.068C93.9172 486.163 92.9741 484.78 92.5361 484.101C93.3585 483.801 94.2324 483.667 95.1069 483.708C95.9814 483.75 96.8389 483.965 97.6294 484.342Z" fill="#EEA987"/>
<path d="M92.8471 483.603C93.4671 484.335 94.1962 484.967 95.0087 485.477L94.0939 486.892L92.5327 484.105L92.8471 483.603Z" fill="#EDDAD3"/>
<path d="M97.2163 483.815C96.6129 484.526 95.8588 485.094 95.0088 485.477L96.0119 486.931L97.7779 484.388L97.2163 483.815Z" fill="#EDDAD3"/>
<path d="M95.0121 485.477L94.228 486.673C94.4739 486.803 94.7488 486.868 95.0269 486.863C95.3049 486.857 95.577 486.781 95.8175 486.641L95.0121 485.477Z" fill="#5073AB"/>
<path d="M84.9248 486.896L84.946 486.973C85.0308 487.281 85.3628 488.459 85.7937 490.026C85.9562 490.167 86.1222 490.305 86.2917 490.439C86.4824 490.588 86.6767 490.737 86.8745 490.878C88.7858 492.233 91.0031 493.092 93.3276 493.379C93.1156 488.462 92.5329 484.101 92.5329 484.101C92.0737 484.222 91.6392 484.342 91.226 484.455C87.6268 485.488 85.8008 486.397 85.1791 486.74C84.999 486.846 84.9248 486.896 84.9248 486.896Z" fill="#323657"/>
<path d="M97.9051 493.198C100.015 492.77 101.999 491.864 103.705 490.549C104.209 490.161 104.687 489.739 105.135 489.286L105.393 489.021C105.64 487.96 105.806 487.274 105.817 487.231C105.817 487.231 104.051 486.075 97.8556 484.402C97.8556 484.55 97.838 488.547 97.9051 493.198Z" fill="#323657"/>
<path d="M94.5601 486.804C94.6166 488.098 94.6237 490.609 94.6025 493.478H95.0688C95.5279 493.478 95.9836 493.456 96.4286 493.414C96.2863 491.186 95.971 488.972 95.4855 486.793C95.4184 486.506 95.376 486.361 95.376 486.361L94.5425 486.499C94.5495 486.598 94.5531 486.694 94.5601 486.804Z" fill="#5073AB"/>
<path d="M84.2075 488.416C84.6927 488.994 85.223 489.532 85.7934 490.026C85.9559 490.167 86.1219 490.305 86.2914 490.439L85.1753 486.747C85.0924 486.808 85.0196 486.882 84.9598 486.966C84.6536 487.419 84.4011 487.905 84.2075 488.416Z" fill="#323657"/>
<path d="M105.135 489.286L105.393 489.021C105.711 488.667 106.011 488.314 106.294 487.96C106.206 487.675 106.041 487.421 105.817 487.224L105.135 489.286Z" fill="#323657"/>
<path d="M492.435 316.086L492.382 315.4C492.224 313.985 492.697 312.422 494.014 310.837C495.201 309.423 495.858 308.411 495.858 307.223C495.858 305.879 495.017 304.98 493.357 304.956C492.408 304.951 491.481 305.236 490.698 305.773L490.065 304.11C490.934 303.477 492.435 303.049 493.831 303.049C496.861 303.049 498.232 304.92 498.232 306.94C498.232 308.733 497.228 310.027 495.964 311.538C494.805 312.91 494.385 314.07 494.463 315.428L494.491 316.114L492.435 316.086ZM491.856 319.779C491.842 319.564 491.872 319.348 491.946 319.146C492.019 318.943 492.133 318.758 492.282 318.602C492.43 318.446 492.609 318.323 492.808 318.24C493.006 318.157 493.22 318.116 493.435 318.12C493.764 318.106 494.089 318.19 494.369 318.363C494.649 318.535 494.872 318.787 495.008 319.087C495.144 319.387 495.187 319.721 495.132 320.046C495.077 320.37 494.927 320.671 494.7 320.91C494.473 321.148 494.18 321.313 493.859 321.383C493.537 321.454 493.202 321.427 492.897 321.305C492.591 321.183 492.329 320.973 492.143 320.701C491.958 320.429 491.858 320.108 491.856 319.779Z" fill="white"/>
</g>
<defs>
<linearGradient id="paint0_linear_15_28" x1="-41.5124" y1="563.829" x2="529.766" y2="563.829" gradientUnits="userSpaceOnUse">
<stop stop-color="#9A5CFF"/>
<stop offset="0.99" stop-color="#4059BF"/>
</linearGradient>
<linearGradient id="paint1_linear_15_28" x1="56.1807" y1="520.757" x2="88.831" y2="520.757" gradientUnits="userSpaceOnUse">
<stop stop-color="#FF9F55"/>
<stop offset="1" stop-color="#FFD255"/>
</linearGradient>
<linearGradient id="paint2_linear_15_28" x1="57.9644" y1="481.969" x2="132.173" y2="481.969" gradientUnits="userSpaceOnUse">
<stop stop-color="#FF9F55"/>
<stop offset="1" stop-color="#FFD255"/>
</linearGradient>
<clipPath id="clip0_15_28">
<rect width="643" height="618" fill="white"/>
</clipPath>
</defs>
</svg>
