<svg width="100" height="100" viewBox="0 0 100 100" fill="none" xmlns="http://www.w3.org/2000/svg">
<path d="M96.8856 53.6469L99.6597 55.4963C98.7593 56.8225 96.6058 59.0977 92.8826 59.0977C88.2592 59.0977 84.8159 55.5206 84.8159 50.9702C84.8159 46.1277 88.2957 42.8426 92.4933 42.8426C96.7153 42.8426 98.7836 46.2007 99.4528 48.0136L99.8178 48.9383L88.9405 53.4401C89.7679 55.0704 91.0576 55.8978 92.8826 55.8978C94.7077 55.8978 95.9731 54.9974 96.8856 53.6469ZM88.3565 50.7146L95.6202 47.6972C95.2187 46.6874 94.0263 45.9695 92.6028 45.9695C90.7899 45.9695 88.2714 47.5756 88.3565 50.7146Z" fill="#FF302F"/>
<path d="M79.5718 34.5569H83.0759V58.3555H79.5718V34.5569Z" fill="#20B15A"/>
<path d="M74.0478 43.4753H77.4302V57.9297C77.4302 63.928 73.8896 66.3979 69.7042 66.3979C65.7621 66.3979 63.3895 63.7455 62.5013 61.5919L65.6039 60.3022C66.1636 61.6284 67.5141 63.198 69.7042 63.198C72.3931 63.198 74.0478 61.5311 74.0478 58.4164V57.2483H73.9261C73.1231 58.2217 71.5901 59.0977 69.6433 59.0977C65.5796 59.0977 61.8564 55.5571 61.8564 50.9945C61.8564 46.4075 65.5796 42.8304 69.6433 42.8304C71.5779 42.8304 73.1231 43.6943 73.9261 44.6433H74.0478V43.4753ZM74.2911 50.9945C74.2911 48.1231 72.3809 46.0303 69.9475 46.0303C67.4898 46.0303 65.4214 48.1231 65.4214 50.9945C65.4214 53.8294 67.4898 55.8856 69.9475 55.8856C72.3809 55.8978 74.2911 53.8294 74.2911 50.9945Z" fill="#3686F7"/>
<path d="M42.6204 50.9336C42.6204 55.6179 38.9703 59.0612 34.4928 59.0612C30.0153 59.0612 26.3652 55.6058 26.3652 50.9336C26.3652 46.225 30.0153 42.7939 34.4928 42.7939C38.9703 42.7939 42.6204 46.225 42.6204 50.9336ZM39.0676 50.9336C39.0676 48.0136 36.9505 46.006 34.4928 46.006C32.0351 46.006 29.918 48.0136 29.918 50.9336C29.918 53.8294 32.0351 55.8613 34.4928 55.8613C36.9505 55.8613 39.0676 53.8294 39.0676 50.9336Z" fill="#FF302F"/>
<path d="M60.3723 50.9702C60.3723 55.6545 56.7222 59.0977 52.2447 59.0977C47.7673 59.0977 44.1172 55.6545 44.1172 50.9702C44.1172 46.2615 47.7673 42.8426 52.2447 42.8426C56.7222 42.8426 60.3723 46.2494 60.3723 50.9702ZM56.8074 50.9702C56.8074 48.0501 54.6903 46.0425 52.2326 46.0425C49.7748 46.0425 47.6578 48.0501 47.6578 50.9702C47.6578 53.8659 49.7748 55.8978 52.2326 55.8978C54.7025 55.8978 56.8074 53.8537 56.8074 50.9702Z" fill="#FFBA40"/>
<path d="M13.006 55.5328C7.90806 55.5328 3.91728 51.4203 3.91728 46.3223C3.91728 41.2244 7.90806 37.1119 13.006 37.1119C15.7558 37.1119 17.7633 38.1948 19.2477 39.5818L21.6933 37.1362C19.6249 35.153 16.863 33.6443 13.006 33.6443C6.02217 33.6443 0.145508 39.3385 0.145508 46.3223C0.145508 53.3062 6.02217 59.0004 13.006 59.0004C16.7778 59.0004 19.6249 57.7593 21.8515 55.4476C24.1389 53.1602 24.8445 49.9481 24.8445 47.3444C24.8445 46.5292 24.7472 45.6897 24.6377 45.0691H13.006V48.4516H21.2918C21.0484 50.5686 20.3792 52.0165 19.3937 53.002C18.2014 54.2066 16.3155 55.5328 13.006 55.5328Z" fill="#3686F7"/>
</svg>
