<svg width="56" height="56" viewBox="0 0 56 56" fill="none" xmlns="http://www.w3.org/2000/svg">
<circle cx="28" cy="28" r="26" fill="white"/>
<path d="M28 1.92826C28 0.863313 27.1357 -0.00691214 26.0732 0.0663696C22.7869 0.293049 19.561 1.09829 16.5459 2.44998C12.9433 4.06503 9.72296 6.42369 7.09626 9.37116C4.46955 12.3186 2.49586 15.7883 1.30473 19.5524C0.113595 23.3165 -0.268055 27.2899 0.184829 31.2119C0.637712 35.1339 1.91489 38.9158 3.93254 42.3093C5.95018 45.7029 8.66268 48.6314 11.892 50.9027C15.1213 53.1739 18.7945 54.7366 22.6704 55.4881C25.9142 56.117 29.2387 56.1659 32.4902 55.6376C33.5414 55.4668 34.1846 54.4225 33.9419 53.3856C33.6992 52.3487 32.6624 51.7129 31.6094 51.8722C28.8894 52.2834 26.1143 52.2275 23.4044 51.7021C20.0624 51.0541 16.8952 49.7066 14.1106 47.7482C11.3261 45.7898 8.98717 43.2646 7.24742 40.3385C5.50767 37.4123 4.40641 34.1513 4.0159 30.7695C3.62539 27.3877 3.95448 23.9615 4.98155 20.7159C6.00863 17.4702 7.71048 14.4785 9.9754 11.937C12.2403 9.39547 15.0171 7.36167 18.1235 5.96906C20.6423 4.83988 23.3317 4.15296 26.0738 3.93349C27.1353 3.84853 28 2.99322 28 1.92826Z" fill="black"/>
<path d="M37 26.2679C38.3333 27.0378 38.3333 28.9623 37 29.7321L25 36.6603C23.6667 37.4301 22 36.4678 22 34.9282L22 21.0718C22 19.5322 23.6667 18.5699 25 19.3397L37 26.2679Z" fill="black"/>
</svg>
