<svg width="102" height="19" viewBox="0 0 102 19" fill="none" xmlns="http://www.w3.org/2000/svg">
<path d="M6.584 18.168C5.352 18.168 4.248 17.968 3.272 17.568C2.296 17.168 1.512 16.576 0.92 15.792C0.344 15.008 0.0400001 14.064 0.00800008 12.96H4.376C4.44 13.584 4.656 14.064 5.024 14.4C5.392 14.72 5.872 14.88 6.464 14.88C7.072 14.88 7.552 14.744 7.904 14.472C8.256 14.184 8.432 13.792 8.432 13.296C8.432 12.88 8.288 12.536 8 12.264C7.728 11.992 7.384 11.768 6.968 11.592C6.568 11.416 5.992 11.216 5.24 10.992C4.152 10.656 3.264 10.32 2.576 9.984C1.888 9.648 1.296 9.152 0.8 8.496C0.304 7.84 0.0560001 6.984 0.0560001 5.928C0.0560001 4.36 0.624 3.136 1.76 2.256C2.896 1.36 4.376 0.912 6.2 0.912C8.056 0.912 9.552 1.36 10.688 2.256C11.824 3.136 12.432 4.368 12.512 5.952H8.072C8.04 5.408 7.84 4.984 7.472 4.68C7.104 4.36 6.632 4.2 6.056 4.2C5.56 4.2 5.16 4.336 4.856 4.608C4.552 4.864 4.4 5.24 4.4 5.736C4.4 6.28 4.656 6.704 5.168 7.008C5.68 7.312 6.48 7.64 7.568 7.992C8.656 8.36 9.536 8.712 10.208 9.048C10.896 9.384 11.488 9.872 11.984 10.512C12.48 11.152 12.728 11.976 12.728 12.984C12.728 13.944 12.48 14.816 11.984 15.6C11.504 16.384 10.8 17.008 9.872 17.472C8.944 17.936 7.848 18.168 6.584 18.168ZM73.7075 1.152V11.232C73.7075 12.24 73.9555 13.016 74.4515 13.56C74.9475 14.104 75.6755 14.376 76.6355 14.376C77.5955 14.376 78.3315 14.104 78.8435 13.56C79.3555 13.016 79.6115 12.24 79.6115 11.232V1.152H83.7155V11.208C83.7155 12.712 83.3955 13.984 82.7555 15.024C82.1155 16.064 81.2515 16.848 80.1635 17.376C79.0915 17.904 77.8915 18.168 76.5635 18.168C75.2355 18.168 74.0435 17.912 72.9875 17.4C71.9475 16.872 71.1235 16.088 70.5155 15.048C69.9075 13.992 69.6035 12.712 69.6035 11.208V1.152H73.7075ZM96.9174 18L93.4854 12.84L90.4614 18H85.8054L91.2054 9.432L85.6854 1.152H90.4614L93.8454 6.24L96.8214 1.152H101.477L96.1254 9.648L101.693 18H96.9174Z" fill="url(#paint0_linear_15_842)"/>
<path d="M23.8456 18L20.3416 11.64H19.3576V18H15.2536V1.152H22.1416C23.4696 1.152 24.5976 1.384 25.5256 1.848C26.4696 2.312 27.1736 2.952 27.6376 3.768C28.1016 4.568 28.3336 5.464 28.3336 6.456C28.3336 7.576 28.0136 8.576 27.3736 9.456C26.7496 10.336 25.8216 10.96 24.5896 11.328L28.4776 18H23.8456ZM19.3576 8.736H21.9016C22.6536 8.736 23.2136 8.552 23.5816 8.184C23.9656 7.816 24.1576 7.296 24.1576 6.624C24.1576 5.984 23.9656 5.48 23.5816 5.112C23.2136 4.744 22.6536 4.56 21.9016 4.56H19.3576V8.736Z" fill="white"/>
<path d="M37.0059 18.168C35.7739 18.168 34.6699 17.968 33.6939 17.568C32.7179 17.168 31.9339 16.576 31.3419 15.792C30.7659 15.008 30.4619 14.064 30.4299 12.96H34.7979C34.8619 13.584 35.0779 14.064 35.4459 14.4C35.8139 14.72 36.2939 14.88 36.8859 14.88C37.4939 14.88 37.9739 14.744 38.3259 14.472C38.6779 14.184 38.8539 13.792 38.8539 13.296C38.8539 12.88 38.7099 12.536 38.4219 12.264C38.1499 11.992 37.8059 11.768 37.3899 11.592C36.9899 11.416 36.4139 11.216 35.6619 10.992C34.5739 10.656 33.6859 10.32 32.9979 9.984C32.3099 9.648 31.7179 9.152 31.2219 8.496C30.7259 7.84 30.4779 6.984 30.4779 5.928C30.4779 4.36 31.0459 3.136 32.1819 2.256C33.3179 1.36 34.7979 0.912 36.6219 0.912C38.4779 0.912 39.9739 1.36 41.1099 2.256C42.2459 3.136 42.8539 4.368 42.9339 5.952H38.4939C38.4619 5.408 38.2619 4.984 37.8939 4.68C37.5259 4.36 37.0539 4.2 36.4779 4.2C35.9819 4.2 35.5819 4.336 35.2779 4.608C34.9739 4.864 34.8219 5.24 34.8219 5.736C34.8219 6.28 35.0779 6.704 35.5899 7.008C36.1019 7.312 36.9019 7.64 37.9899 7.992C39.0779 8.36 39.9579 8.712 40.6299 9.048C41.3179 9.384 41.9099 9.872 42.4059 10.512C42.9019 11.152 43.1499 11.976 43.1499 12.984C43.1499 13.944 42.9019 14.816 42.4059 15.6C41.9259 16.384 41.2219 17.008 40.2939 17.472C39.3659 17.936 38.2699 18.168 37.0059 18.168ZM49.7075 1.152V11.232C49.7075 12.24 49.9555 13.016 50.4515 13.56C50.9475 14.104 51.6755 14.376 52.6355 14.376C53.5955 14.376 54.3315 14.104 54.8435 13.56C55.3555 13.016 55.6115 12.24 55.6115 11.232V1.152H59.7155V11.208C59.7155 12.712 59.3955 13.984 58.7555 15.024C58.1155 16.064 57.2515 16.848 56.1635 17.376C55.0915 17.904 53.8915 18.168 52.5635 18.168C51.2355 18.168 50.0435 17.912 48.9875 17.4C47.9475 16.872 47.1235 16.088 46.5155 15.048C45.9075 13.992 45.6035 12.712 45.6035 11.208V1.152H49.7075ZM66.7014 1.152V18H62.5974V1.152H66.7014Z" fill="url(#paint1_linear_15_842)"/>
<defs>
<linearGradient id="paint0_linear_15_842" x1="-1" y1="9.96697" x2="101.539" y2="9.96698" gradientUnits="userSpaceOnUse">
<stop stop-color="white"/>
<stop offset="1" stop-color="#42378F"/>
</linearGradient>
<linearGradient id="paint1_linear_15_842" x1="51" y1="-8" x2="51" y2="28" gradientUnits="userSpaceOnUse">
<stop stop-color="white"/>
<stop offset="1" stop-color="#42378F"/>
</linearGradient>
</defs>
</svg>
